<mxfile host="app.diagrams.net" modified="2024-04-18T15:49:13.726Z" agent="Mozilla/5.0 (Windows NT 10.0; Win64; x64) AppleWebKit/537.36 (KHTML, like Gecko) Chrome/123.0.0.0 Safari/537.36" etag="ZsGU0ocWhPfkzLQZdRWq" version="24.2.5" type="device">
  <diagram name="Full Analytics Workflow" id="Page_1">
    <mxGraphModel dx="908" dy="431" grid="1" gridSize="10" guides="1" tooltips="1" connect="1" arrows="1" fold="1" page="1" pageScale="1" pageWidth="1100" pageHeight="850" math="0" shadow="0">
      <root>
        <mxCell id="0" />
        <mxCell id="1" parent="0" />
        <mxCell id="2" style="vsdxID=1;fillColor=none;gradientColor=none;strokeColor=none;strokeWidth=2;spacingTop=-3;spacingBottom=-3;spacingLeft=-3;spacingRight=-3;labelBackgroundColor=none;rounded=1;html=1;whiteSpace=wrap;fontColor=#000000;" parent="1" vertex="1">
          <mxGeometry x="80" y="207" width="38.1" height="38" as="geometry" />
        </mxCell>
        <mxCell id="3" style="vsdxID=2;fillColor=#FFFFFF;gradientColor=none;shape=stencil(hVJbEoIwDDxNf5mQDOKv4+MCnoCRKh0RnAIKnt5COkIraL+SdJPdZFbQtsqSuxQIVa3Lq3yqtM4E7QSiKjKpVW0iQXtB23Op5UWXTZFyfk8MEmGoyJR7wh6NkOjTUb0k1yCgMI74gztv5aNnbG0PAH92nEecHhh7ajSDQx9tC3EcrOz0FsfS2qLQa2vJYYGOXMBAC5sZZsSA0OUep1oacFmn2shF0Peys6zetr2ICMYXuvxTja6kpb3/8U9v6Upq/dN2+Fsj+filG5h4MBfbTuU5e/PjCRP4ZjQlNjLt3w==);strokeColor=#5e5e5e;strokeWidth=2;spacingTop=-3;spacingBottom=-3;spacingLeft=-3;spacingRight=-3;labelBackgroundColor=none;rounded=1;html=1;whiteSpace=wrap;fontColor=#000000;" parent="2" vertex="1">
          <mxGeometry width="38" height="38" as="geometry" />
        </mxCell>
        <mxCell id="4" value="&lt;div style=&quot;font-size: 1px&quot;&gt;&lt;p style=&quot;align:center;margin-left:0;margin-right:0;margin-top:0px;margin-bottom:0px;text-indent:0;valign:middle;direction:ltr;&quot;&gt;&lt;font style=&quot;font-size: 14.11px; font-family: Arial; direction: ltr; letter-spacing: 0px; line-height: 100%; opacity: 1;&quot;&gt;Start&lt;/font&gt;&lt;/p&gt;&lt;/div&gt;" style="text;vsdxID=1;fillColor=none;gradientColor=none;strokeColor=none;strokeWidth=2;spacingTop=-3;spacingBottom=-3;spacingLeft=-3;spacingRight=-3;labelBackgroundColor=none;rounded=1;html=1;whiteSpace=wrap;verticalAlign=middle;align=center;;html=1;fontColor=#000000;" parent="2" vertex="1">
          <mxGeometry y="12.65" width="38.1" height="12.7" as="geometry" />
        </mxCell>
        <mxCell id="5" style="vsdxID=3;fillColor=none;gradientColor=none;strokeColor=none;strokeWidth=2;spacingTop=-3;spacingBottom=-3;spacingLeft=-3;spacingRight=-3;labelBackgroundColor=none;rounded=1;html=1;whiteSpace=wrap;fontColor=#000000;" parent="1" vertex="1">
          <mxGeometry x="680" y="183.93" width="101.6" height="76.1" as="geometry" />
        </mxCell>
        <mxCell id="6" style="vsdxID=4;fillColor=#FFFFFF;gradientColor=none;shape=stencil(fZNbEoIwDEVX018mNOODT8fHBlwBA1U6IjgVFVy9hbTSFvSvaW4mJ7cNw+29SG+Ccbg3qr6Il8ybguGOcS6rQijZ6BPDPcPtqVbirOpHlVN8S7WSw3AjcqqJezWHVGVH+RZ0BxHGqwUlqPJaP/uOrclTqqOIhAcSZg9FytiXmpBHRg4tN/2jZWI03CtpkUKMLEqHrmBoCBvds5SVA5csvz26iX4KmKz1sD4kBIQAPqAzBIYSnHgygzjKDcNfC0e1RV59LbGM7hQhtoV0jQm4f4E63s8UzKCOjxnCt/7rWkp3FvQVODVnBvHPX9SH4cfTLsiypIVx8+GG6CvaLtx/AA==);strokeColor=#5e5e5e;strokeWidth=2;spacingTop=-3;spacingBottom=-3;spacingLeft=-3;spacingRight=-3;labelBackgroundColor=none;rounded=1;html=1;whiteSpace=wrap;fontColor=#000000;" parent="5" vertex="1">
          <mxGeometry width="101" height="76" as="geometry" />
        </mxCell>
        <mxCell id="7" value="&lt;div style=&quot;font-size: 1px&quot;&gt;&lt;p style=&quot;align:center;margin-left:0;margin-right:0;margin-top:0px;margin-bottom:0px;text-indent:0;valign:middle;direction:ltr;&quot;&gt;&lt;font style=&quot;font-size: 11.29px; font-family: Arial; direction: ltr; letter-spacing: 0px; line-height: 100%; opacity: 1;&quot;&gt;Captured Data&amp;nbsp;&lt;/font&gt;&lt;/p&gt;&lt;p style=&quot;align:center;margin-left:0;margin-right:0;margin-top:0px;margin-bottom:0px;text-indent:0;valign:middle;direction:ltr;&quot;&gt;&lt;span style=&quot;font-family: Arial; font-size: 11.29px; letter-spacing: 0px; background-color: initial;&quot;&gt;Application&lt;/span&gt;&lt;br&gt;&lt;/p&gt;&lt;/div&gt;" style="text;vsdxID=3;fillColor=none;gradientColor=none;strokeColor=none;strokeWidth=2;spacingTop=-3;spacingBottom=-3;spacingLeft=-3;spacingRight=-3;labelBackgroundColor=none;rounded=1;html=1;whiteSpace=wrap;verticalAlign=middle;align=center;;html=1;fontColor=#000000;" parent="5" vertex="1">
          <mxGeometry y="-0.10000000000000142" width="101.6" height="76.2" as="geometry" />
        </mxCell>
        <mxCell id="21" style="vsdxID=20;fillColor=none;gradientColor=none;strokeColor=none;strokeWidth=3;spacingTop=-3;spacingBottom=-3;spacingLeft=-3;spacingRight=-3;labelBackgroundColor=none;rounded=1;html=1;whiteSpace=wrap;fontColor=#000000;dashed=1;dashPattern=12 12;" parent="1" vertex="1">
          <mxGeometry x="166.2" y="169.93" width="72.6" height="104.1" as="geometry" />
        </mxCell>
        <mxCell id="-FW8mCHG5fzSLNDHaCp1-301" style="vsdxID=22;fillColor=none;gradientColor=none;strokeColor=none;strokeWidth=3;spacingTop=-3;spacingBottom=-3;spacingLeft=-3;spacingRight=-3;labelBackgroundColor=none;rounded=1;html=1;whiteSpace=wrap;fontColor=#000000;fontSize=14;dashed=1;dashPattern=12 12;" parent="21" vertex="1">
          <mxGeometry x="13" width="59.6" height="94.1" as="geometry" />
        </mxCell>
        <mxCell id="-FW8mCHG5fzSLNDHaCp1-302" style="vsdxID=23;fillColor=#FFFFFF;gradientColor=none;shape=stencil(fZNbEoIwDEVX018mNOODT8fHBlwBA1U6IjgVFVy9hbTSFvSvaW4mJ7cNw+29SG+Ccbg3qr6Il8ybguGOcS6rQijZ6BPDPcPtqVbirOpHlVN8S7WSw3AjcqqJezWHVGVH+RZ0BxHGqwUlqPJaP/uOrclTqqOIhAcSZg9FytiXmpBHRg4tN/2jZWI03CtpkUKMLEqHrmBoCBvds5SVA5csvz26iX4KmKz1sD4kBIQAPqAzBIYSnHgygzjKDcNfC0e1RV59LbGM7hQhtoV0jQm4f4E63s8UzKCOjxnCt/7rWkp3FvQVODVnBvHPX9SH4cfTLsiypIVx8+GG6CvaLtx/AA==);strokeColor=#5e5e5e;strokeWidth=2;spacingTop=-3;spacingBottom=-3;spacingLeft=-3;spacingRight=-3;labelBackgroundColor=none;rounded=1;html=1;whiteSpace=wrap;fontColor=#000000;" parent="-FW8mCHG5fzSLNDHaCp1-301" vertex="1">
          <mxGeometry width="59.248031496063" height="93.97634691195795" as="geometry" />
        </mxCell>
        <mxCell id="-FW8mCHG5fzSLNDHaCp1-303" value="&lt;div style=&quot;&quot;&gt;&lt;p style=&quot;margin: 0px; text-indent: 0px; direction: ltr;&quot;&gt;&lt;font face=&quot;Arial&quot;&gt;&lt;span style=&quot;font-size: 13px;&quot;&gt;rewrite&lt;/span&gt;&lt;/font&gt;&lt;/p&gt;&lt;p style=&quot;margin: 0px; text-indent: 0px; direction: ltr;&quot;&gt;&lt;font face=&quot;Arial&quot;&gt;&lt;span style=&quot;font-size: 13px;&quot;&gt;Jupyter NB&lt;br&gt;code to Python&lt;/span&gt;&lt;/font&gt;&lt;/p&gt;&lt;/div&gt;" style="text;vsdxID=22;fillColor=none;gradientColor=none;strokeColor=none;strokeWidth=2;spacingTop=-3;spacingBottom=-3;spacingLeft=-3;spacingRight=-3;labelBackgroundColor=none;rounded=1;html=1;whiteSpace=wrap;verticalAlign=middle;align=center;;html=1;fontColor=#000000;" parent="-FW8mCHG5fzSLNDHaCp1-301" vertex="1">
          <mxGeometry y="-0.12365308804205169" width="59.6" height="94.22365308804206" as="geometry" />
        </mxCell>
        <mxCell id="24" style="vsdxID=22;fillColor=none;gradientColor=none;strokeColor=none;strokeWidth=3;spacingTop=-3;spacingBottom=-3;spacingLeft=-3;spacingRight=-3;labelBackgroundColor=none;rounded=1;html=1;whiteSpace=wrap;fontColor=#000000;fontSize=14;dashed=1;dashPattern=12 12;" parent="1" vertex="1">
          <mxGeometry x="377.4" y="170" width="59.6" height="94.1" as="geometry" />
        </mxCell>
        <mxCell id="25" style="vsdxID=23;fillColor=#FFFFFF;gradientColor=none;shape=stencil(fZNbEoIwDEVX018mNOODT8fHBlwBA1U6IjgVFVy9hbTSFvSvaW4mJ7cNw+29SG+Ccbg3qr6Il8ybguGOcS6rQijZ6BPDPcPtqVbirOpHlVN8S7WSw3AjcqqJezWHVGVH+RZ0BxHGqwUlqPJaP/uOrclTqqOIhAcSZg9FytiXmpBHRg4tN/2jZWI03CtpkUKMLEqHrmBoCBvds5SVA5csvz26iX4KmKz1sD4kBIQAPqAzBIYSnHgygzjKDcNfC0e1RV59LbGM7hQhtoV0jQm4f4E63s8UzKCOjxnCt/7rWkp3FvQVODVnBvHPX9SH4cfTLsiypIVx8+GG6CvaLtx/AA==);strokeColor=#5e5e5e;strokeWidth=2;spacingTop=-3;spacingBottom=-3;spacingLeft=-3;spacingRight=-3;labelBackgroundColor=none;rounded=1;html=1;whiteSpace=wrap;fontColor=#000000;" parent="24" vertex="1">
          <mxGeometry width="59.248031496063" height="93.97634691195795" as="geometry" />
        </mxCell>
        <mxCell id="26" value="&lt;div style=&quot;&quot;&gt;&lt;p style=&quot;margin: 0px; text-indent: 0px; direction: ltr;&quot;&gt;&lt;font style=&quot;font-family: Arial; direction: ltr; letter-spacing: 0px; line-height: 100%; opacity: 1; font-size: 13px;&quot;&gt;Authent-&lt;br&gt;icate&lt;/font&gt;&lt;/p&gt;&lt;/div&gt;" style="text;vsdxID=22;fillColor=none;gradientColor=none;strokeColor=none;strokeWidth=2;spacingTop=-3;spacingBottom=-3;spacingLeft=-3;spacingRight=-3;labelBackgroundColor=none;rounded=1;html=1;whiteSpace=wrap;verticalAlign=middle;align=center;;html=1;fontColor=#000000;" parent="24" vertex="1">
          <mxGeometry y="-0.12365308804205169" width="59.6" height="94.22365308804206" as="geometry" />
        </mxCell>
        <mxCell id="47" style="vsdxID=50;fillColor=none;gradientColor=none;strokeColor=none;strokeWidth=2;spacingTop=-3;spacingBottom=-3;spacingLeft=-3;spacingRight=-3;labelBackgroundColor=none;rounded=1;html=1;whiteSpace=wrap;fontColor=#000000;" parent="1" vertex="1">
          <mxGeometry x="510" y="179" width="101.6" height="76.1" as="geometry" />
        </mxCell>
        <mxCell id="48" style="vsdxID=51;fillColor=#FFFFFF;gradientColor=none;shape=stencil(fZNbEoIwDEVX018mNOODT8fHBlwBA1U6IjgVFVy9hbTSFvSvaW4mJ7cNw+29SG+Ccbg3qr6Il8ybguGOcS6rQijZ6BPDPcPtqVbirOpHlVN8S7WSw3AjcqqJezWHVGVH+RZ0BxHGqwUlqPJaP/uOrclTqqOIhAcSZg9FytiXmpBHRg4tN/2jZWI03CtpkUKMLEqHrmBoCBvds5SVA5csvz26iX4KmKz1sD4kBIQAPqAzBIYSnHgygzjKDcNfC0e1RV59LbGM7hQhtoV0jQm4f4E63s8UzKCOjxnCt/7rWkp3FvQVODVnBvHPX9SH4cfTLsiypIVx8+GG6CvaLtx/AA==);strokeColor=#5e5e5e;strokeWidth=2;spacingTop=-3;spacingBottom=-3;spacingLeft=-3;spacingRight=-3;labelBackgroundColor=none;rounded=1;html=1;whiteSpace=wrap;fontColor=#000000;" parent="47" vertex="1">
          <mxGeometry width="101" height="76" as="geometry" />
        </mxCell>
        <mxCell id="49" value="&lt;div style=&quot;font-size: 1px&quot;&gt;&lt;p style=&quot;align:center;margin-left:0;margin-right:0;margin-top:0px;margin-bottom:0px;text-indent:0;valign:middle;direction:ltr;&quot;&gt;&lt;font style=&quot;font-size: 11.29px; font-family: Arial; direction: ltr; letter-spacing: 0px; line-height: 100%; opacity: 1;&quot;&gt;Choose Data&amp;nbsp;&lt;/font&gt;&lt;/p&gt;&lt;p style=&quot;align:center;margin-left:0;margin-right:0;margin-top:0px;margin-bottom:0px;text-indent:0;valign:middle;direction:ltr;&quot;&gt;&lt;font style=&quot;font-size: 11.29px; font-family: Arial; direction: ltr; letter-spacing: 0px; line-height: 100%; opacity: 1;&quot;&gt;to Extract&amp;nbsp;&lt;/font&gt;&lt;/p&gt;&lt;p style=&quot;align:center;margin-left:0;margin-right:0;margin-top:0px;margin-bottom:0px;text-indent:0;valign:middle;direction:ltr;&quot;&gt;&lt;font style=&quot;font-size: 11.29px; font-family: Arial; direction: ltr; letter-spacing: 0px; line-height: 100%; opacity: 1;&quot;&gt;from Data Source&lt;/font&gt;&lt;/p&gt;&lt;/div&gt;" style="text;vsdxID=50;fillColor=none;gradientColor=none;strokeColor=none;strokeWidth=2;spacingTop=-3;spacingBottom=-3;spacingLeft=-3;spacingRight=-3;labelBackgroundColor=none;rounded=1;html=1;whiteSpace=wrap;verticalAlign=middle;align=center;;html=1;fontColor=#000000;" parent="47" vertex="1">
          <mxGeometry y="-0.10000000000000142" width="101.6" height="76.2" as="geometry" />
        </mxCell>
        <mxCell id="56" style="vsdxID=56;fillColor=none;gradientColor=none;fillOpacity=0;strokeOpacity=0;strokeWidth=2;spacingTop=-3;spacingBottom=-3;spacingLeft=-3;spacingRight=-3;labelBackgroundColor=none;rounded=1;strokeColor=none;html=1;whiteSpace=wrap;fontColor=#000000;fontSize=14;" parent="1" vertex="1">
          <mxGeometry x="492" y="114" width="152" height="38" as="geometry" />
        </mxCell>
        <mxCell id="57" style="vsdxID=57;fillColor=#ffffff;gradientColor=none;fillOpacity=0;strokeOpacity=0;shape=stencil(fZNRboMwDIZPk9fIsYsoj1PXXmAnQCUb0RhUKV1pT78Uh5EEWp5i+3f82cGCdue6PGmBcO5t962vpuprQe8C0bS1tqZ3J0F7QbvPzuov213aiu1T6ZQIo0dXnKMeaoTSHj/MXbMPJKk84wBn/nS/j4qDj3Po5m9g88DK48WyVMVab25kpiD4fJUB/V1SkU/AKH8gNlH6jBuF8bE4vLn6jWkD0iL/1y/kS9ZiK7d5zAsJH0CM96wfSvW0HNYK76z3RC95Z/XUQCY3RUwc9pQ2MVEGU0q4n3FiMtZIvwI6P2uKPsTvPDGGnVCsoOVoVghf/aPuMK4CL4lpGt6kMJ6ujnPx2tH+Dw==);strokeWidth=2;spacingTop=-3;spacingBottom=-3;spacingLeft=-3;spacingRight=-3;labelBackgroundColor=none;rounded=1;html=1;whiteSpace=wrap;fontColor=#000000;" parent="56" vertex="1">
          <mxGeometry width="152" height="38" as="geometry" />
        </mxCell>
        <mxCell id="58" value="&lt;div style=&quot;&quot;&gt;&lt;p style=&quot;margin: 0px; text-indent: 0px; direction: ltr;&quot;&gt;&lt;font size=&quot;1&quot; style=&quot;font-family: Arial; direction: ltr; letter-spacing: 0px; line-height: 100%; opacity: 1;&quot;&gt;&lt;b style=&quot;font-size: 14px;&quot;&gt;Select Data&lt;/b&gt;&lt;/font&gt;&lt;/p&gt;&lt;/div&gt;" style="text;vsdxID=56;fillColor=none;gradientColor=none;fillOpacity=0;strokeOpacity=0;strokeWidth=2;spacingTop=-3;spacingBottom=-3;spacingLeft=-3;spacingRight=-3;labelBackgroundColor=none;rounded=1;strokeColor=none;html=1;whiteSpace=wrap;verticalAlign=middle;align=center;;html=1;fontColor=#000000;" parent="56" vertex="1">
          <mxGeometry x="3.17" y="3.125" width="146.05" height="31.75" as="geometry" />
        </mxCell>
        <mxCell id="59" style="vsdxID=58;fillColor=none;gradientColor=none;fillOpacity=0;strokeOpacity=0;strokeWidth=2;spacingTop=-3;spacingBottom=-3;spacingLeft=-3;spacingRight=-3;labelBackgroundColor=none;rounded=1;strokeColor=none;html=1;whiteSpace=wrap;fontColor=#000000;dashed=1;" parent="1" vertex="1">
          <mxGeometry x="200" y="113" width="152" height="40" as="geometry" />
        </mxCell>
        <mxCell id="60" style="vsdxID=59;fillColor=#ffffff;gradientColor=none;fillOpacity=0;strokeOpacity=0;shape=stencil(hZNRcsIgEIZPwysDu2rCY8fqBXqCjKEN0zRxMNbY0xezaIBgmyfY/f/Zb5csw+2pqY6agTgNtv/UF1MPDcNXBmC6RlszuBPDHcPte2/1h+3PXU33Y+WUIKaIrskjb2oQlT28mR9NMcFRFmtKkPOr/75VHH2eUle6Kb4qpsCetIezJbGM1f664oAq+HydETwPl+gNEPlHpCtw77himJ+KixdXvzVdwKqKh34hX7KqkpdFzCsSPiFivGf9YKrH3LgyxLPDG8Q/A54N9y7WfFPG2GFj95DiKWwwLExFz3AhmW/iyODOLyyXJPGjP1iDjjBWYHZKGdC//1p3mNaDFse0LW1XmE/XyYVoFXH3Cw==);strokeWidth=2;spacingTop=-3;spacingBottom=-3;spacingLeft=-3;spacingRight=-3;labelBackgroundColor=none;rounded=1;html=1;whiteSpace=wrap;fontColor=#000000;" parent="59" vertex="1">
          <mxGeometry width="152" height="40" as="geometry" />
        </mxCell>
        <mxCell id="61" value="&lt;div style=&quot;font-size: 1px&quot;&gt;&lt;p style=&quot;align:center;margin-left:0;margin-right:0;margin-top:0px;margin-bottom:0px;text-indent:0;valign:middle;direction:ltr;&quot;&gt;&lt;font style=&quot;font-size: 14.11px; font-family: Arial; direction: ltr; letter-spacing: 0px; line-height: 100%; opacity: 1;&quot;&gt;&lt;b&gt;Connect &amp;amp; Authenticate&lt;/b&gt;&lt;/font&gt;&lt;/p&gt;&lt;/div&gt;" style="text;vsdxID=58;fillColor=none;gradientColor=none;fillOpacity=0;strokeOpacity=0;strokeWidth=2;spacingTop=-3;spacingBottom=-3;spacingLeft=-3;spacingRight=-3;labelBackgroundColor=none;rounded=1;strokeColor=none;html=1;whiteSpace=wrap;verticalAlign=middle;align=center;;html=1;fontColor=#000000;" parent="59" vertex="1">
          <mxGeometry x="3.17" y="2.8550000000000004" width="146.05" height="34.29" as="geometry" />
        </mxCell>
        <mxCell id="143" style="vsdxID=135;fillColor=none;gradientColor=none;fillOpacity=0;strokeOpacity=0;strokeWidth=2;spacingTop=-3;spacingBottom=-3;spacingLeft=-3;spacingRight=-3;labelBackgroundColor=none;rounded=1;strokeColor=none;html=1;whiteSpace=wrap;fontColor=#000000;" parent="1" vertex="1">
          <mxGeometry x="708.8" y="114" width="152" height="38" as="geometry" />
        </mxCell>
        <mxCell id="144" style="vsdxID=136;fillColor=#ffffff;gradientColor=none;fillOpacity=0;strokeOpacity=0;shape=stencil(fZNRboMwDIZPk9fIsYsoj1PXXmAnQCUb0RhUKV1pT78Uh5EEWp5i+3f82cGCdue6PGmBcO5t962vpuprQe8C0bS1tqZ3J0F7QbvPzuov213aiu1T6ZQIo0dXnKMeaoTSHj/MXbMPJKk84wBn/nS/j4qDj3Po5m9g88DK48WyVMVab25kpiD4fJUB/V1SkU/AKH8gNlH6jBuF8bE4vLn6jWkD0iL/1y/kS9ZiK7d5zAsJH0CM96wfSvW0HNYK76z3RC95Z/XUQCY3RUwc9pQ2MVEGU0q4n3FiMtZIvwI6P2uKPsTvPDGGnVCsoOVoVghf/aPuMK4CL4lpGt6kMJ6ujnPx2tH+Dw==);strokeWidth=2;spacingTop=-3;spacingBottom=-3;spacingLeft=-3;spacingRight=-3;labelBackgroundColor=none;rounded=1;html=1;whiteSpace=wrap;fontColor=#000000;" parent="143" vertex="1">
          <mxGeometry width="152" height="38" as="geometry" />
        </mxCell>
        <mxCell id="145" value="&lt;div style=&quot;font-size: 1px&quot;&gt;&lt;p style=&quot;align:center;margin-left:0;margin-right:0;margin-top:0px;margin-bottom:0px;text-indent:0;valign:middle;direction:ltr;&quot;&gt;&lt;font style=&quot;font-size: 14.11px; font-family: Arial; direction: ltr; letter-spacing: 0px; line-height: 100%; opacity: 1;&quot;&gt;&lt;b&gt;Retrieve or Capture&lt;/b&gt;&lt;/font&gt;&lt;/p&gt;&lt;/div&gt;" style="text;vsdxID=135;fillColor=none;gradientColor=none;fillOpacity=0;strokeOpacity=0;strokeWidth=2;spacingTop=-3;spacingBottom=-3;spacingLeft=-3;spacingRight=-3;labelBackgroundColor=none;rounded=1;strokeColor=none;html=1;whiteSpace=wrap;verticalAlign=middle;align=center;;html=1;fontColor=#000000;" parent="143" vertex="1">
          <mxGeometry x="3.17" y="3.125" width="146.05" height="31.75" as="geometry" />
        </mxCell>
        <mxCell id="Qu6rMEnezqI3qGwemYrF-164" value="" style="edgeStyle=orthogonalEdgeStyle;rounded=0;orthogonalLoop=1;jettySize=auto;html=1;fontColor=#000000;" parent="1" source="23" target="26" edge="1">
          <mxGeometry relative="1" as="geometry" />
        </mxCell>
        <mxCell id="Qcy1gJZtDxz-MgVROfQz-174" style="edgeStyle=orthogonalEdgeStyle;rounded=1;orthogonalLoop=1;jettySize=auto;html=1;fontColor=#000000;entryX=0;entryY=0.5;entryDx=0;entryDy=0;" parent="1" source="7" target="-FW8mCHG5fzSLNDHaCp1-194" edge="1">
          <mxGeometry relative="1" as="geometry">
            <Array as="points">
              <mxPoint x="835" y="230" />
              <mxPoint x="835" y="294" />
              <mxPoint x="110" y="294" />
              <mxPoint x="110" y="470" />
            </Array>
            <mxPoint x="711.2" y="238" as="sourcePoint" />
            <mxPoint x="110" y="480" as="targetPoint" />
          </mxGeometry>
        </mxCell>
        <mxCell id="Qcy1gJZtDxz-MgVROfQz-183" value="" style="edgeStyle=orthogonalEdgeStyle;rounded=1;orthogonalLoop=1;jettySize=auto;html=1;fontColor=#000000;" parent="1" source="26" target="49" edge="1">
          <mxGeometry relative="1" as="geometry" />
        </mxCell>
        <mxCell id="LGKFDJto8DtLp07K-jpt-161" value="" style="shape=curlyBracket;whiteSpace=wrap;html=1;rounded=1;flipH=1;labelPosition=right;verticalLabelPosition=middle;align=left;verticalAlign=middle;dashed=1;" parent="1" vertex="1">
          <mxGeometry x="446.52" y="161.98" width="20" height="120" as="geometry" />
        </mxCell>
        <mxCell id="LGKFDJto8DtLp07K-jpt-162" value="" style="shape=curlyBracket;whiteSpace=wrap;html=1;rounded=1;labelPosition=left;verticalLabelPosition=middle;align=right;verticalAlign=middle;dashed=1;" parent="1" vertex="1">
          <mxGeometry x="136" y="166" width="20" height="120" as="geometry" />
        </mxCell>
        <mxCell id="w2VvpYyrszo1gsQ1QNz3-156" value="&lt;b&gt;&lt;i&gt;TO-BE&lt;/i&gt;&lt;/b&gt;" style="ellipse;whiteSpace=wrap;html=1;" parent="1" vertex="1">
          <mxGeometry x="420" y="20" width="120" height="80" as="geometry" />
        </mxCell>
        <mxCell id="139" value="&lt;div style=&quot;font-size: 1px&quot;&gt;&lt;p style=&quot;align:center;margin-left:0;margin-right:0;margin-top:0px;margin-bottom:0px;text-indent:0;valign:middle;direction:ltr;&quot;&gt;&lt;font style=&quot;font-size: 14.11px; font-family: Arial; direction: ltr; letter-spacing: 0px; line-height: 100%; opacity: 1;&quot;&gt;&lt;b&gt;Analyze&lt;/b&gt;&lt;/font&gt;&lt;/p&gt;&lt;/div&gt;" style="text;vsdxID=131;fillColor=none;gradientColor=none;fillOpacity=0;strokeOpacity=0;strokeWidth=2;spacingTop=-3;spacingBottom=-3;spacingLeft=-3;spacingRight=-3;labelBackgroundColor=none;rounded=1;strokeColor=none;html=1;whiteSpace=wrap;verticalAlign=middle;align=center;;html=1;fontColor=#000000;" parent="1" vertex="1">
          <mxGeometry x="272.39" y="300" width="56.52" height="31.75" as="geometry" />
        </mxCell>
        <mxCell id="w2VvpYyrszo1gsQ1QNz3-159" value="&lt;div style=&quot;font-size: 1px&quot;&gt;&lt;p style=&quot;align:center;margin-left:0;margin-right:0;margin-top:0px;margin-bottom:0px;text-indent:0;valign:middle;direction:ltr;&quot;&gt;&lt;font style=&quot;font-size: 14.11px; font-family: Arial; direction: ltr; letter-spacing: 0px; line-height: 100%; opacity: 1;&quot;&gt;&lt;b&gt;Visualize&lt;/b&gt;&lt;/font&gt;&lt;/p&gt;&lt;/div&gt;" style="text;vsdxID=131;fillColor=none;gradientColor=none;fillOpacity=0;strokeOpacity=0;strokeWidth=2;spacingTop=-3;spacingBottom=-3;spacingLeft=-3;spacingRight=-3;labelBackgroundColor=none;rounded=1;strokeColor=none;html=1;whiteSpace=wrap;verticalAlign=middle;align=center;;html=1;fontColor=#000000;" parent="1" vertex="1">
          <mxGeometry x="410" y="300" width="56.52" height="31.75" as="geometry" />
        </mxCell>
        <mxCell id="-FW8mCHG5fzSLNDHaCp1-156" style="vsdxID=5;fillColor=none;gradientColor=none;strokeColor=none;strokeWidth=2;spacingTop=-3;spacingBottom=-3;spacingLeft=-3;spacingRight=-3;labelBackgroundColor=none;rounded=1;html=1;whiteSpace=wrap;fontColor=#000000;" parent="1" vertex="1">
          <mxGeometry x="287" y="560" width="101" height="92" as="geometry" />
        </mxCell>
        <mxCell id="-FW8mCHG5fzSLNDHaCp1-157" style="vsdxID=6;fillColor=#FFFFFF;gradientColor=none;shape=stencil(hVNBcoMwDHyNrx4hQQzHTpp+IC9ggls8pZBxSEPy+hDLTG1PSDnZq5V2WYSg7amtj1ognEY7fOuLacZW0LtANH2rrRnnk6CdoO3nYPWXHc59w/djPTMRHKIb7skebITaHvbmphkDSZkquMCdP8PvQ3HyPQBcvPo7yrxyyAfTD2fL/Cxt8EAhi7L6e0ruhgm5rJTckO/wkB8wkR+wDKSw7OTh7YkDREkq9gCxJsR6aw4pZtPTBJyFzvRBZnFiFbyKKwmrymWOsdnwdTDJeC2ihbAeUhh7+uWmVGbRDd1RyvFAqWSBL+P5d6Xmg1tfXmzTdbz9YT1d9xniX4V2dw==);strokeColor=#5e5e5e;strokeWidth=2;spacingTop=-3;spacingBottom=-3;spacingLeft=-3;spacingRight=-3;labelBackgroundColor=none;rounded=1;html=1;whiteSpace=wrap;fontColor=#000000;" parent="-FW8mCHG5fzSLNDHaCp1-156" vertex="1">
          <mxGeometry width="101" height="92" as="geometry" />
        </mxCell>
        <mxCell id="-FW8mCHG5fzSLNDHaCp1-158" style="vsdxID=7;fillColor=#FFFFFF;gradientColor=none;shape=stencil(rVTRboMwDPyavEbGJlAep679gX0BKtmI1pUqpWu7r1/AqRoQFGUaT8n5jI87ZEHrU10etUA4tbb51BdTtbWgV4FoDrW2pnUnQRtB6/fG6g/bnA8V34+lYyL0iK64J+nYCKXdvZkfzRhISnLFBe78ar67iVffA8DFm7+jTIse2TJ9d7bMT8YNd6CQxB1wRYbyXGbkWR5CJYGK4EHfQlxX97fSg58+dMDLhBRESflQzOwYLwOGqkLtNGTQpB+9jkgHn9MRo9zGTKa46DYtuEsYby09tzIUNmNlIdV4bow3/2v7ShZZlPNEzpLw11LLMbghOQRPthBLx/9DMnNjppOa/ZDp2LpgV3Gxjb11h35f8SYz+z2vu7A+3m8O4t1Im18=);strokeColor=#5e5e5e;strokeWidth=2;spacingTop=-3;spacingBottom=-3;spacingLeft=-3;spacingRight=-3;labelBackgroundColor=none;rounded=1;html=1;whiteSpace=wrap;fontColor=#000000;" parent="-FW8mCHG5fzSLNDHaCp1-156" vertex="1">
          <mxGeometry width="101" height="92" as="geometry" />
        </mxCell>
        <mxCell id="-FW8mCHG5fzSLNDHaCp1-159" value="&lt;div style=&quot;&quot;&gt;&lt;p style=&quot;margin: 0px; text-indent: 0px; direction: ltr;&quot;&gt;&lt;font face=&quot;Arial&quot;&gt;&lt;span style=&quot;font-size: 14.11px;&quot;&gt;SQLite&lt;br&gt;database (v2 or v3)&lt;/span&gt;&lt;/font&gt;&lt;/p&gt;&lt;/div&gt;" style="text;vsdxID=5;fillColor=none;gradientColor=none;strokeColor=none;strokeWidth=2;spacingTop=-3;spacingBottom=-3;spacingLeft=-3;spacingRight=-3;labelBackgroundColor=none;rounded=1;html=1;whiteSpace=wrap;verticalAlign=middle;align=center;;html=1;fontColor=#000000;" parent="-FW8mCHG5fzSLNDHaCp1-156" vertex="1">
          <mxGeometry y="25.32" width="101.6" height="60.33" as="geometry" />
        </mxCell>
        <mxCell id="-FW8mCHG5fzSLNDHaCp1-160" style="vsdxID=8;fillColor=none;gradientColor=none;strokeColor=none;strokeWidth=2;spacingTop=-3;spacingBottom=-3;spacingLeft=-3;spacingRight=-3;labelBackgroundColor=none;rounded=1;html=1;whiteSpace=wrap;fontColor=#000000;" parent="1" vertex="1">
          <mxGeometry x="421" y="432" width="101" height="76" as="geometry" />
        </mxCell>
        <mxCell id="-FW8mCHG5fzSLNDHaCp1-161" style="vsdxID=9;fillColor=#FFFFFF;gradientColor=none;shape=stencil(fZNbEoIwDEVX018mNOODT8fHBlwBA1U6IjgVFVy9hbTSFvSvaW4mJ7cNw+29SG+Ccbg3qr6Il8ybguGOcS6rQijZ6BPDPcPtqVbirOpHlVN8S7WSw3AjcqqJezWHVGVH+RZ0BxHGqwUlqPJaP/uOrclTqqOIhAcSZg9FytiXmpBHRg4tN/2jZWI03CtpkUKMLEqHrmBoCBvds5SVA5csvz26iX4KmKz1sD4kBIQAPqAzBIYSnHgygzjKDcNfC0e1RV59LbGM7hQhtoV0jQm4f4E63s8UzKCOjxnCt/7rWkp3FvQVODVnBvHPX9SH4cfTLsiypIVx8+GG6CvaLtx/AA==);strokeColor=#5e5e5e;strokeWidth=2;spacingTop=-3;spacingBottom=-3;spacingLeft=-3;spacingRight=-3;labelBackgroundColor=none;rounded=1;html=1;whiteSpace=wrap;fontColor=#000000;" parent="-FW8mCHG5fzSLNDHaCp1-160" vertex="1">
          <mxGeometry width="101" height="76" as="geometry" />
        </mxCell>
        <mxCell id="-FW8mCHG5fzSLNDHaCp1-162" value="&lt;div style=&quot;font-size: 1px&quot;&gt;&lt;p style=&quot;align:center;margin-left:0;margin-right:0;margin-top:0px;margin-bottom:0px;text-indent:0;valign:middle;direction:ltr;&quot;&gt;&lt;font style=&quot;font-size: 11.29px; font-family: Arial; direction: ltr; letter-spacing: 0px; line-height: 100%; opacity: 1;&quot;&gt;Query&lt;/font&gt;&lt;/p&gt;&lt;/div&gt;" style="text;vsdxID=8;fillColor=none;gradientColor=none;strokeColor=none;strokeWidth=2;spacingTop=-3;spacingBottom=-3;spacingLeft=-3;spacingRight=-3;labelBackgroundColor=none;rounded=1;html=1;whiteSpace=wrap;verticalAlign=middle;align=center;;html=1;fontColor=#000000;" parent="-FW8mCHG5fzSLNDHaCp1-160" vertex="1">
          <mxGeometry y="-0.2" width="101.6" height="76.2" as="geometry" />
        </mxCell>
        <mxCell id="-FW8mCHG5fzSLNDHaCp1-163" style="vsdxID=11;fillColor=none;gradientColor=none;strokeColor=none;strokeWidth=2;spacingTop=-3;spacingBottom=-3;spacingLeft=-3;spacingRight=-3;labelBackgroundColor=none;rounded=1;html=1;whiteSpace=wrap;fontColor=#000000;" parent="1" vertex="1">
          <mxGeometry x="566" y="432" width="101.3" height="76" as="geometry" />
        </mxCell>
        <mxCell id="-FW8mCHG5fzSLNDHaCp1-164" style="vsdxID=12;fillColor=#FFFFFF;gradientColor=none;shape=stencil(fZNbEoIwDEVX018mNOODT8fHBlwBA1U6IjgVFVy9hbTSFvSvaW4mJ7cNw+29SG+Ccbg3qr6Il8ybguGOcS6rQijZ6BPDPcPtqVbirOpHlVN8S7WSw3AjcqqJezWHVGVH+RZ0BxHGqwUlqPJaP/uOrclTqqOIhAcSZg9FytiXmpBHRg4tN/2jZWI03CtpkUKMLEqHrmBoCBvds5SVA5csvz26iX4KmKz1sD4kBIQAPqAzBIYSnHgygzjKDcNfC0e1RV59LbGM7hQhtoV0jQm4f4E63s8UzKCOjxnCt/7rWkp3FvQVODVnBvHPX9SH4cfTLsiypIVx8+GG6CvaLtx/AA==);strokeColor=#5e5e5e;strokeWidth=2;spacingTop=-3;spacingBottom=-3;spacingLeft=-3;spacingRight=-3;labelBackgroundColor=none;rounded=1;html=1;whiteSpace=wrap;fontColor=#000000;" parent="-FW8mCHG5fzSLNDHaCp1-163" vertex="1">
          <mxGeometry width="101" height="76" as="geometry" />
        </mxCell>
        <mxCell id="-FW8mCHG5fzSLNDHaCp1-165" value="&lt;div style=&quot;font-size: 1px&quot;&gt;&lt;p style=&quot;align:center;margin-left:0;margin-right:0;margin-top:0px;margin-bottom:0px;text-indent:0;valign:middle;direction:ltr;&quot;&gt;&lt;font style=&quot;font-size: 14.11px; font-family: Arial; direction: ltr; letter-spacing: 0px; line-height: 100%; opacity: 1;&quot;&gt;Analyze&lt;/font&gt;&lt;/p&gt;&lt;/div&gt;" style="text;vsdxID=11;fillColor=none;gradientColor=none;strokeColor=none;strokeWidth=2;spacingTop=-3;spacingBottom=-3;spacingLeft=-3;spacingRight=-3;labelBackgroundColor=none;rounded=1;html=1;whiteSpace=wrap;verticalAlign=middle;align=center;;html=1;fontColor=#000000;" parent="-FW8mCHG5fzSLNDHaCp1-163" vertex="1">
          <mxGeometry x="-0.29999999999999716" y="-0.2" width="101.6" height="76.2" as="geometry" />
        </mxCell>
        <mxCell id="-FW8mCHG5fzSLNDHaCp1-166" style="vsdxID=14;fillColor=none;gradientColor=none;strokeColor=none;strokeWidth=2;spacingTop=-3;spacingBottom=-3;spacingLeft=-3;spacingRight=-3;labelBackgroundColor=none;rounded=1;html=1;whiteSpace=wrap;fontColor=#000000;" parent="1" vertex="1">
          <mxGeometry x="701" y="432" width="101" height="76" as="geometry" />
        </mxCell>
        <mxCell id="-FW8mCHG5fzSLNDHaCp1-167" style="vsdxID=15;fillColor=#FFFFFF;gradientColor=none;shape=stencil(fZNbEoIwDEVX018mNOODT8fHBlwBA1U6IjgVFVy9hbTSFvSvaW4mJ7cNw+29SG+Ccbg3qr6Il8ybguGOcS6rQijZ6BPDPcPtqVbirOpHlVN8S7WSw3AjcqqJezWHVGVH+RZ0BxHGqwUlqPJaP/uOrclTqqOIhAcSZg9FytiXmpBHRg4tN/2jZWI03CtpkUKMLEqHrmBoCBvds5SVA5csvz26iX4KmKz1sD4kBIQAPqAzBIYSnHgygzjKDcNfC0e1RV59LbGM7hQhtoV0jQm4f4E63s8UzKCOjxnCt/7rWkp3FvQVODVnBvHPX9SH4cfTLsiypIVx8+GG6CvaLtx/AA==);strokeColor=#5e5e5e;strokeWidth=2;spacingTop=-3;spacingBottom=-3;spacingLeft=-3;spacingRight=-3;labelBackgroundColor=none;rounded=1;html=1;whiteSpace=wrap;fontColor=#000000;" parent="-FW8mCHG5fzSLNDHaCp1-166" vertex="1">
          <mxGeometry width="101" height="76" as="geometry" />
        </mxCell>
        <mxCell id="-FW8mCHG5fzSLNDHaCp1-168" value="&lt;div style=&quot;font-size: 1px&quot;&gt;&lt;p style=&quot;align:center;margin-left:0;margin-right:0;margin-top:0px;margin-bottom:0px;text-indent:0;valign:middle;direction:ltr;&quot;&gt;&lt;font style=&quot;font-size: 14.11px; font-family: Arial; direction: ltr; letter-spacing: 0px; line-height: 100%; opacity: 1;&quot;&gt;Visualize&lt;/font&gt;&lt;/p&gt;&lt;/div&gt;" style="text;vsdxID=14;fillColor=none;gradientColor=none;strokeColor=none;strokeWidth=2;spacingTop=-3;spacingBottom=-3;spacingLeft=-3;spacingRight=-3;labelBackgroundColor=none;rounded=1;html=1;whiteSpace=wrap;verticalAlign=middle;align=center;;html=1;fontColor=#000000;" parent="-FW8mCHG5fzSLNDHaCp1-166" vertex="1">
          <mxGeometry y="-0.2" width="101.6" height="76.2" as="geometry" />
        </mxCell>
        <mxCell id="-FW8mCHG5fzSLNDHaCp1-169" style="vsdxID=25;edgeStyle=none;startArrow=none;endArrow=block;startSize=5;endSize=5;strokeColor=#5E5E5E;spacingTop=-3;spacingBottom=-3;spacingLeft=-3;spacingRight=-3;verticalAlign=middle;html=1;labelBackgroundColor=none;rounded=1;entryX=0;entryY=0.5;entryDx=0;entryDy=0;fontColor=#000000;" parent="1" source="-FW8mCHG5fzSLNDHaCp1-194" target="-FW8mCHG5fzSLNDHaCp1-179" edge="1">
          <mxGeometry relative="1" as="geometry">
            <mxPoint as="offset" />
            <Array as="points" />
            <mxPoint x="254" y="470" as="sourcePoint" />
            <mxPoint x="286" y="470" as="targetPoint" />
          </mxGeometry>
        </mxCell>
        <mxCell id="-FW8mCHG5fzSLNDHaCp1-170" style="vsdxID=28;fillColor=none;gradientColor=none;strokeColor=none;strokeWidth=2;spacingTop=-3;spacingBottom=-3;spacingLeft=-3;spacingRight=-3;labelBackgroundColor=none;rounded=1;html=1;whiteSpace=wrap;fontColor=#000000;" parent="1" vertex="1">
          <mxGeometry x="566" y="559" width="101.3" height="76" as="geometry" />
        </mxCell>
        <mxCell id="-FW8mCHG5fzSLNDHaCp1-171" style="vsdxID=29;fillColor=#FFFFFF;gradientColor=none;shape=stencil(fZNbEoIwDEVX018mNOODT8fHBlwBA1U6IjgVFVy9hbTSFvSvaW4mJ7cNw+29SG+Ccbg3qr6Il8ybguGOcS6rQijZ6BPDPcPtqVbirOpHlVN8S7WSw3AjcqqJezWHVGVH+RZ0BxHGqwUlqPJaP/uOrclTqqOIhAcSZg9FytiXmpBHRg4tN/2jZWI03CtpkUKMLEqHrmBoCBvds5SVA5csvz26iX4KmKz1sD4kBIQAPqAzBIYSnHgygzjKDcNfC0e1RV59LbGM7hQhtoV0jQm4f4E63s8UzKCOjxnCt/7rWkp3FvQVODVnBvHPX9SH4cfTLsiypIVx8+GG6CvaLtx/AA==);strokeColor=#5e5e5e;strokeWidth=2;spacingTop=-3;spacingBottom=-3;spacingLeft=-3;spacingRight=-3;labelBackgroundColor=none;rounded=1;html=1;whiteSpace=wrap;fontColor=#000000;" parent="-FW8mCHG5fzSLNDHaCp1-170" vertex="1">
          <mxGeometry width="101" height="76" as="geometry" />
        </mxCell>
        <mxCell id="-FW8mCHG5fzSLNDHaCp1-172" value="&lt;div style=&quot;font-size: 1px&quot;&gt;&lt;p style=&quot;align:center;margin-left:0;margin-right:0;margin-top:0px;margin-bottom:0px;text-indent:0;valign:middle;direction:ltr;&quot;&gt;&lt;font style=&quot;font-size: 14.11px; font-family: Arial; direction: ltr; letter-spacing: 0px; line-height: 100%; opacity: 1;&quot;&gt;Analyze for Tabular Report &lt;/font&gt;&lt;/p&gt;&lt;/div&gt;" style="text;vsdxID=28;fillColor=none;gradientColor=none;strokeColor=none;strokeWidth=2;spacingTop=-3;spacingBottom=-3;spacingLeft=-3;spacingRight=-3;labelBackgroundColor=none;rounded=1;html=1;whiteSpace=wrap;verticalAlign=middle;align=center;;html=1;fontColor=#000000;" parent="-FW8mCHG5fzSLNDHaCp1-170" vertex="1">
          <mxGeometry x="-0.29999999999999716" y="-0.2" width="101.6" height="76.2" as="geometry" />
        </mxCell>
        <mxCell id="-FW8mCHG5fzSLNDHaCp1-173" style="vsdxID=30;edgeStyle=none;startArrow=none;endArrow=block;startSize=5;endSize=5;strokeColor=#5E5E5E;spacingTop=-3;spacingBottom=-3;spacingLeft=-3;spacingRight=-3;verticalAlign=middle;html=1;labelBackgroundColor=none;rounded=1;fontColor=#000000;" parent="1" edge="1">
          <mxGeometry relative="1" as="geometry">
            <mxPoint as="offset" />
            <Array as="points" />
            <mxPoint x="668" y="597" as="sourcePoint" />
            <mxPoint x="700" y="597" as="targetPoint" />
          </mxGeometry>
        </mxCell>
        <mxCell id="-FW8mCHG5fzSLNDHaCp1-174" style="vsdxID=31;fillColor=none;gradientColor=none;strokeColor=none;strokeWidth=2;spacingTop=-3;spacingBottom=-3;spacingLeft=-3;spacingRight=-3;labelBackgroundColor=none;rounded=1;html=1;whiteSpace=wrap;fontColor=#000000;" parent="1" vertex="1">
          <mxGeometry x="700" y="559" width="101" height="76" as="geometry" />
        </mxCell>
        <mxCell id="-FW8mCHG5fzSLNDHaCp1-175" style="vsdxID=32;fillColor=#FFFFFF;gradientColor=none;shape=stencil(fZNbEoIwDEVX018mNOODT8fHBlwBA1U6IjgVFVy9hbTSFvSvaW4mJ7cNw+29SG+Ccbg3qr6Il8ybguGOcS6rQijZ6BPDPcPtqVbirOpHlVN8S7WSw3AjcqqJezWHVGVH+RZ0BxHGqwUlqPJaP/uOrclTqqOIhAcSZg9FytiXmpBHRg4tN/2jZWI03CtpkUKMLEqHrmBoCBvds5SVA5csvz26iX4KmKz1sD4kBIQAPqAzBIYSnHgygzjKDcNfC0e1RV59LbGM7hQhtoV0jQm4f4E63s8UzKCOjxnCt/7rWkp3FvQVODVnBvHPX9SH4cfTLsiypIVx8+GG6CvaLtx/AA==);strokeColor=#5e5e5e;strokeWidth=2;spacingTop=-3;spacingBottom=-3;spacingLeft=-3;spacingRight=-3;labelBackgroundColor=none;rounded=1;html=1;whiteSpace=wrap;fontColor=#000000;" parent="-FW8mCHG5fzSLNDHaCp1-174" vertex="1">
          <mxGeometry width="101" height="76" as="geometry" />
        </mxCell>
        <mxCell id="-FW8mCHG5fzSLNDHaCp1-176" value="&lt;div style=&quot;font-size: 1px&quot;&gt;&lt;p style=&quot;align:center;margin-left:0;margin-right:0;margin-top:0px;margin-bottom:0px;text-indent:0;valign:middle;direction:ltr;&quot;&gt;&lt;font style=&quot;font-size: 14.11px; font-family: Arial; direction: ltr; letter-spacing: 0px; line-height: 100%; opacity: 1;&quot;&gt;View&amp;nbsp;&lt;/font&gt;&lt;/p&gt;&lt;p style=&quot;align:center;margin-left:0;margin-right:0;margin-top:0px;margin-bottom:0px;text-indent:0;valign:middle;direction:ltr;&quot;&gt;&lt;font style=&quot;font-size: 14.11px; font-family: Arial; direction: ltr; letter-spacing: 0px; line-height: 100%; opacity: 1;&quot;&gt;Analysis&amp;nbsp;&lt;/font&gt;&lt;/p&gt;&lt;p style=&quot;align:center;margin-left:0;margin-right:0;margin-top:0px;margin-bottom:0px;text-indent:0;valign:middle;direction:ltr;&quot;&gt;&lt;font style=&quot;font-size: 14.11px; font-family: Arial; direction: ltr; letter-spacing: 0px; line-height: 100%; opacity: 1;&quot;&gt;Results&amp;nbsp;&lt;/font&gt;&lt;/p&gt;&lt;p style=&quot;align:center;margin-left:0;margin-right:0;margin-top:0px;margin-bottom:0px;text-indent:0;valign:middle;direction:ltr;&quot;&gt;&lt;font style=&quot;font-size: 14.11px; font-family: Arial; direction: ltr; letter-spacing: 0px; line-height: 100%; opacity: 1;&quot;&gt;in Table&lt;/font&gt;&lt;/p&gt;&lt;/div&gt;" style="text;vsdxID=31;fillColor=none;gradientColor=none;strokeColor=none;strokeWidth=2;spacingTop=-3;spacingBottom=-3;spacingLeft=-3;spacingRight=-3;labelBackgroundColor=none;rounded=1;html=1;whiteSpace=wrap;verticalAlign=middle;align=center;;html=1;fontColor=#000000;" parent="-FW8mCHG5fzSLNDHaCp1-174" vertex="1">
          <mxGeometry y="-0.2" width="101.6" height="76.2" as="geometry" />
        </mxCell>
        <mxCell id="-FW8mCHG5fzSLNDHaCp1-177" style="vsdxID=33;fillColor=none;gradientColor=none;strokeColor=none;strokeWidth=2;spacingTop=-3;spacingBottom=-3;spacingLeft=-3;spacingRight=-3;labelBackgroundColor=none;rounded=1;html=1;whiteSpace=wrap;fontColor=#000000;" parent="1" vertex="1">
          <mxGeometry x="287" y="432" width="101" height="76" as="geometry" />
        </mxCell>
        <mxCell id="-FW8mCHG5fzSLNDHaCp1-178" style="vsdxID=34;fillColor=#FFFFFF;gradientColor=none;shape=stencil(fZNbEoIwDEVX018mNOODT8fHBlwBA1U6IjgVFVy9hbTSFvSvaW4mJ7cNw+29SG+Ccbg3qr6Il8ybguGOcS6rQijZ6BPDPcPtqVbirOpHlVN8S7WSw3AjcqqJezWHVGVH+RZ0BxHGqwUlqPJaP/uOrclTqqOIhAcSZg9FytiXmpBHRg4tN/2jZWI03CtpkUKMLEqHrmBoCBvds5SVA5csvz26iX4KmKz1sD4kBIQAPqAzBIYSnHgygzjKDcNfC0e1RV59LbGM7hQhtoV0jQm4f4E63s8UzKCOjxnCt/7rWkp3FvQVODVnBvHPX9SH4cfTLsiypIVx8+GG6CvaLtx/AA==);strokeColor=#5e5e5e;strokeWidth=2;spacingTop=-3;spacingBottom=-3;spacingLeft=-3;spacingRight=-3;labelBackgroundColor=none;rounded=1;html=1;whiteSpace=wrap;fontColor=#000000;" parent="-FW8mCHG5fzSLNDHaCp1-177" vertex="1">
          <mxGeometry width="101" height="76" as="geometry" />
        </mxCell>
        <mxCell id="-FW8mCHG5fzSLNDHaCp1-179" value="&lt;div style=&quot;font-size: 1px&quot;&gt;&lt;p style=&quot;align:center;margin-left:0;margin-right:0;margin-top:0px;margin-bottom:0px;text-indent:0;valign:middle;direction:ltr;&quot;&gt;&lt;font style=&quot;font-size: 11.29px; font-family: Arial; direction: ltr; letter-spacing: 0px; line-height: 100%; opacity: 1;&quot;&gt;Store&amp;nbsp;&lt;/font&gt;&lt;/p&gt;&lt;p style=&quot;align:center;margin-left:0;margin-right:0;margin-top:0px;margin-bottom:0px;text-indent:0;valign:middle;direction:ltr;&quot;&gt;&lt;font style=&quot;font-size: 11.29px; font-family: Arial; direction: ltr; letter-spacing: 0px; line-height: 100%; opacity: 1;&quot;&gt;in Data Store&lt;/font&gt;&lt;/p&gt;&lt;p style=&quot;align:center;margin-left:0;margin-right:0;margin-top:0px;margin-bottom:0px;text-indent:0;valign:middle;direction:ltr;&quot;&gt;&lt;font style=&quot;font-size: 11.29px; font-family: Arial; direction: ltr; letter-spacing: 0px; line-height: 100%; opacity: 1;&quot;&gt;[ DBMS or file(s) ]&lt;/font&gt;&lt;/p&gt;&lt;/div&gt;" style="text;vsdxID=33;fillColor=none;gradientColor=none;strokeColor=none;strokeWidth=2;spacingTop=-3;spacingBottom=-3;spacingLeft=-3;spacingRight=-3;labelBackgroundColor=none;rounded=1;html=1;whiteSpace=wrap;verticalAlign=middle;align=center;;html=1;fontColor=#000000;" parent="-FW8mCHG5fzSLNDHaCp1-177" vertex="1">
          <mxGeometry y="-0.2" width="101.6" height="76.2" as="geometry" />
        </mxCell>
        <mxCell id="-FW8mCHG5fzSLNDHaCp1-180" value="" style="edgeStyle=orthogonalEdgeStyle;rounded=1;orthogonalLoop=1;jettySize=auto;html=1;fontColor=#000000;" parent="1" source="-FW8mCHG5fzSLNDHaCp1-181" target="-FW8mCHG5fzSLNDHaCp1-188" edge="1">
          <mxGeometry relative="1" as="geometry" />
        </mxCell>
        <mxCell id="-FW8mCHG5fzSLNDHaCp1-181" style="vsdxID=38;fillColor=none;gradientColor=none;strokeColor=none;strokeWidth=2;spacingTop=-3;spacingBottom=-3;spacingLeft=-3;spacingRight=-3;labelBackgroundColor=none;rounded=1;html=1;whiteSpace=wrap;fontColor=#000000;" parent="1" vertex="1">
          <mxGeometry x="700" y="722" width="101" height="76" as="geometry" />
        </mxCell>
        <mxCell id="-FW8mCHG5fzSLNDHaCp1-182" style="vsdxID=39;fillColor=#FFFFFF;gradientColor=none;shape=stencil(fZNbEoIwDEVX018mNOODT8fHBlwBA1U6IjgVFVy9hbTSFvSvaW4mJ7cNw+29SG+Ccbg3qr6Il8ybguGOcS6rQijZ6BPDPcPtqVbirOpHlVN8S7WSw3AjcqqJezWHVGVH+RZ0BxHGqwUlqPJaP/uOrclTqqOIhAcSZg9FytiXmpBHRg4tN/2jZWI03CtpkUKMLEqHrmBoCBvds5SVA5csvz26iX4KmKz1sD4kBIQAPqAzBIYSnHgygzjKDcNfC0e1RV59LbGM7hQhtoV0jQm4f4E63s8UzKCOjxnCt/7rWkp3FvQVODVnBvHPX9SH4cfTLsiypIVx8+GG6CvaLtx/AA==);strokeColor=#5e5e5e;strokeWidth=2;spacingTop=-3;spacingBottom=-3;spacingLeft=-3;spacingRight=-3;labelBackgroundColor=none;rounded=1;html=1;whiteSpace=wrap;fontColor=#000000;" parent="-FW8mCHG5fzSLNDHaCp1-181" vertex="1">
          <mxGeometry width="101" height="76" as="geometry" />
        </mxCell>
        <mxCell id="-FW8mCHG5fzSLNDHaCp1-183" value="&lt;div style=&quot;font-size: 1px&quot;&gt;&lt;p style=&quot;align:center;margin-left:0;margin-right:0;margin-top:0px;margin-bottom:0px;text-indent:0;valign:middle;direction:ltr;&quot;&gt;&lt;font style=&quot;font-size: 14.11px; font-family: Arial; direction: ltr; letter-spacing: 0px; line-height: 100%; opacity: 1;&quot;&gt;Interim Report&lt;/font&gt;&lt;/p&gt;&lt;p style=&quot;align:center;margin-left:0;margin-right:0;margin-top:0px;margin-bottom:0px;text-indent:0;valign:middle;direction:ltr;&quot;&gt;&lt;font style=&quot;font-size: 14.11px; font-family: Arial; direction: ltr; letter-spacing: 0px; line-height: 100%; opacity: 1;&quot;&gt;or Dashboard&lt;/font&gt;&lt;/p&gt;&lt;p style=&quot;align:center;margin-left:0;margin-right:0;margin-top:0px;margin-bottom:0px;text-indent:0;valign:middle;direction:ltr;&quot;&gt;&lt;font style=&quot;font-size: 14.11px; font-family: Arial; direction: ltr; letter-spacing: 0px; line-height: 100%; opacity: 1;&quot;&gt;(draft version)&lt;/font&gt;&lt;/p&gt;&lt;/div&gt;" style="text;vsdxID=38;fillColor=none;gradientColor=none;strokeColor=none;strokeWidth=2;spacingTop=-3;spacingBottom=-3;spacingLeft=-3;spacingRight=-3;labelBackgroundColor=none;rounded=1;html=1;whiteSpace=wrap;verticalAlign=middle;align=center;;html=1;fontColor=#000000;" parent="-FW8mCHG5fzSLNDHaCp1-181" vertex="1">
          <mxGeometry y="-0.2" width="101.6" height="76.2" as="geometry" />
        </mxCell>
        <mxCell id="-FW8mCHG5fzSLNDHaCp1-184" style="vsdxID=40;fillColor=none;gradientColor=none;strokeColor=none;strokeWidth=2;spacingTop=-3;spacingBottom=-3;spacingLeft=-3;spacingRight=-3;labelBackgroundColor=none;rounded=1;html=1;whiteSpace=wrap;fontColor=#000000;" parent="1" vertex="1">
          <mxGeometry x="835" y="509" width="47" height="47" as="geometry" />
        </mxCell>
        <mxCell id="-FW8mCHG5fzSLNDHaCp1-185" style="vsdxID=41;fillColor=#FFFFFF;gradientColor=none;shape=stencil(UzV2Ls5ILEhVNTIoLinKz04tz0wpyVA1dlE1MsrMy0gtyiwBslSNXVWNndPyi1LTi/JL81Ig/IJEkEoQKze/DGRCBUSfAUiHkUElhGcK4bpBVOZk5iGpNEVVikeloQHZpsK0YlWLz1QgA+HFtMycHEgIIcujBwlQCBKcxq4A);strokeColor=#5e5e5e;strokeWidth=2;spacingTop=-3;spacingBottom=-3;spacingLeft=-3;spacingRight=-3;labelBackgroundColor=none;rounded=0;html=1;whiteSpace=wrap;fontColor=#000000;" parent="-FW8mCHG5fzSLNDHaCp1-184" vertex="1">
          <mxGeometry width="47" height="47" as="geometry" />
        </mxCell>
        <mxCell id="-FW8mCHG5fzSLNDHaCp1-186" style="vsdxID=45;fillColor=none;gradientColor=none;strokeColor=none;strokeWidth=2;spacingTop=-3;spacingBottom=-3;spacingLeft=-3;spacingRight=-3;labelBackgroundColor=none;rounded=1;html=1;whiteSpace=wrap;fontColor=#000000;" parent="1" vertex="1">
          <mxGeometry x="873.5" y="722" width="101" height="76" as="geometry" />
        </mxCell>
        <mxCell id="-FW8mCHG5fzSLNDHaCp1-187" style="vsdxID=46;fillColor=#FFFFFF;gradientColor=none;shape=stencil(fZNbEoIwDEVX018mNOODT8fHBlwBA1U6IjgVFVy9hbTSFvSvaW4mJ7cNw+29SG+Ccbg3qr6Il8ybguGOcS6rQijZ6BPDPcPtqVbirOpHlVN8S7WSw3AjcqqJezWHVGVH+RZ0BxHGqwUlqPJaP/uOrclTqqOIhAcSZg9FytiXmpBHRg4tN/2jZWI03CtpkUKMLEqHrmBoCBvds5SVA5csvz26iX4KmKz1sD4kBIQAPqAzBIYSnHgygzjKDcNfC0e1RV59LbGM7hQhtoV0jQm4f4E63s8UzKCOjxnCt/7rWkp3FvQVODVnBvHPX9SH4cfTLsiypIVx8+GG6CvaLtx/AA==);strokeColor=#5e5e5e;strokeWidth=2;spacingTop=-3;spacingBottom=-3;spacingLeft=-3;spacingRight=-3;labelBackgroundColor=none;rounded=1;html=1;whiteSpace=wrap;fontColor=#000000;" parent="-FW8mCHG5fzSLNDHaCp1-186" vertex="1">
          <mxGeometry width="101" height="76" as="geometry" />
        </mxCell>
        <mxCell id="-FW8mCHG5fzSLNDHaCp1-188" value="&lt;div style=&quot;font-size: 1px&quot;&gt;&lt;p style=&quot;align:center;margin-left:0;margin-right:0;margin-top:0px;margin-bottom:0px;text-indent:0;valign:middle;direction:ltr;&quot;&gt;&lt;font style=&quot;font-size: 14.11px; font-family: Arial; direction: ltr; letter-spacing: 0px; line-height: 100%; opacity: 1;&quot;&gt;Final Report &lt;/font&gt;&lt;/p&gt;&lt;p style=&quot;align:center;margin-left:0;margin-right:0;margin-top:0px;margin-bottom:0px;text-indent:0;valign:middle;direction:ltr;&quot;&gt;&lt;font style=&quot;font-size: 14.11px; font-family: Arial; direction: ltr; letter-spacing: 0px; line-height: 100%; opacity: 1;&quot;&gt;or&amp;nbsp;&lt;/font&gt;&lt;/p&gt;&lt;p style=&quot;align:center;margin-left:0;margin-right:0;margin-top:0px;margin-bottom:0px;text-indent:0;valign:middle;direction:ltr;&quot;&gt;&lt;font style=&quot;font-size: 14.11px; font-family: Arial; direction: ltr; letter-spacing: 0px; line-height: 100%; opacity: 1;&quot;&gt;Dashboard&lt;/font&gt;&lt;/p&gt;&lt;/div&gt;" style="text;vsdxID=45;fillColor=none;gradientColor=none;strokeColor=none;strokeWidth=2;spacingTop=-3;spacingBottom=-3;spacingLeft=-3;spacingRight=-3;labelBackgroundColor=none;rounded=1;html=1;whiteSpace=wrap;verticalAlign=middle;align=center;;html=1;fontColor=#000000;" parent="-FW8mCHG5fzSLNDHaCp1-186" vertex="1">
          <mxGeometry y="-0.2" width="101.6" height="76.2" as="geometry" />
        </mxCell>
        <mxCell id="-FW8mCHG5fzSLNDHaCp1-189" style="vsdxID=47;fillColor=none;gradientColor=none;strokeColor=none;strokeWidth=4;spacingTop=-3;spacingBottom=-3;spacingLeft=-3;spacingRight=-3;labelBackgroundColor=none;rounded=1;html=1;whiteSpace=wrap;fontColor=#000000;fontStyle=1" parent="1" vertex="1">
          <mxGeometry x="1020" y="741" width="38" height="38" as="geometry" />
        </mxCell>
        <mxCell id="-FW8mCHG5fzSLNDHaCp1-190" style="vsdxID=48;fillColor=#FFFFFF;gradientColor=none;shape=stencil(hVJbEoIwDDxNf5mQDOKv4+MCnoCRKh0RnAIKnt5COkIraL+SdJPdZFbQtsqSuxQIVa3Lq3yqtM4E7QSiKjKpVW0iQXtB23Op5UWXTZFyfk8MEmGoyJR7wh6NkOjTUb0k1yCgMI74gztv5aNnbG0PAH92nEecHhh7ajSDQx9tC3EcrOz0FsfS2qLQa2vJYYGOXMBAC5sZZsSA0OUep1oacFmn2shF0Peys6zetr2ICMYXuvxTja6kpb3/8U9v6Upq/dN2+Fsj+filG5h4MBfbTuU5e/PjCRP4ZjQlNjLt3w==);strokeColor=#5e5e5e;strokeWidth=4;spacingTop=-3;spacingBottom=-3;spacingLeft=-3;spacingRight=-3;labelBackgroundColor=none;rounded=1;html=1;whiteSpace=wrap;fontColor=#000000;" parent="-FW8mCHG5fzSLNDHaCp1-189" vertex="1">
          <mxGeometry width="38" height="38" as="geometry" />
        </mxCell>
        <mxCell id="-FW8mCHG5fzSLNDHaCp1-191" value="&lt;div style=&quot;font-size: 1px&quot;&gt;&lt;p style=&quot;align:center;margin-left:0;margin-right:0;margin-top:0px;margin-bottom:0px;text-indent:0;valign:middle;direction:ltr;&quot;&gt;&lt;font style=&quot;font-size: 14.11px; font-family: Arial; direction: ltr; letter-spacing: 0px; line-height: 100%; opacity: 1;&quot;&gt;&lt;b&gt;End&lt;/b&gt;&lt;/font&gt;&lt;/p&gt;&lt;/div&gt;" style="text;vsdxID=47;fillColor=none;gradientColor=none;strokeColor=none;strokeWidth=4;spacingTop=-3;spacingBottom=-3;spacingLeft=-3;spacingRight=-3;labelBackgroundColor=none;rounded=1;html=1;whiteSpace=wrap;verticalAlign=middle;align=center;;html=1;fontColor=#000000;" parent="-FW8mCHG5fzSLNDHaCp1-189" vertex="1">
          <mxGeometry y="39.27" width="38.1" height="12.7" as="geometry" />
        </mxCell>
        <mxCell id="-FW8mCHG5fzSLNDHaCp1-192" style="vsdxID=54;fillColor=none;gradientColor=none;strokeColor=none;strokeWidth=2;spacingTop=-3;spacingBottom=-3;spacingLeft=-3;spacingRight=-3;labelBackgroundColor=none;rounded=1;html=1;whiteSpace=wrap;fontColor=#000000;" parent="1" vertex="1">
          <mxGeometry x="152" y="432" width="101" height="76" as="geometry" />
        </mxCell>
        <mxCell id="-FW8mCHG5fzSLNDHaCp1-193" style="vsdxID=55;fillColor=#FFFFFF;gradientColor=none;shape=stencil(fZNbEoIwDEVX018mNOODT8fHBlwBA1U6IjgVFVy9hbTSFvSvaW4mJ7cNw+29SG+Ccbg3qr6Il8ybguGOcS6rQijZ6BPDPcPtqVbirOpHlVN8S7WSw3AjcqqJezWHVGVH+RZ0BxHGqwUlqPJaP/uOrclTqqOIhAcSZg9FytiXmpBHRg4tN/2jZWI03CtpkUKMLEqHrmBoCBvds5SVA5csvz26iX4KmKz1sD4kBIQAPqAzBIYSnHgygzjKDcNfC0e1RV59LbGM7hQhtoV0jQm4f4E63s8UzKCOjxnCt/7rWkp3FvQVODVnBvHPX9SH4cfTLsiypIVx8+GG6CvaLtx/AA==);strokeColor=#5e5e5e;strokeWidth=2;spacingTop=-3;spacingBottom=-3;spacingLeft=-3;spacingRight=-3;labelBackgroundColor=none;rounded=1;html=1;whiteSpace=wrap;fontColor=#000000;" parent="-FW8mCHG5fzSLNDHaCp1-192" vertex="1">
          <mxGeometry width="101" height="76" as="geometry" />
        </mxCell>
        <mxCell id="-FW8mCHG5fzSLNDHaCp1-194" value="&lt;div style=&quot;font-size: 1px&quot;&gt;&lt;p style=&quot;align:center;margin-left:0;margin-right:0;margin-top:0px;margin-bottom:0px;text-indent:0;valign:middle;direction:ltr;&quot;&gt;&lt;font style=&quot;font-size: 11.29px; font-family: Arial; direction: ltr; letter-spacing: 0px; line-height: 100%; opacity: 1;&quot;&gt;Transform&lt;/font&gt;&lt;/p&gt;&lt;/div&gt;" style="text;vsdxID=54;fillColor=none;gradientColor=none;strokeColor=none;strokeWidth=2;spacingTop=-3;spacingBottom=-3;spacingLeft=-3;spacingRight=-3;labelBackgroundColor=none;rounded=1;html=1;whiteSpace=wrap;verticalAlign=middle;align=center;;html=1;fontColor=#000000;" parent="-FW8mCHG5fzSLNDHaCp1-192" vertex="1">
          <mxGeometry y="-0.2" width="101.6" height="76.2" as="geometry" />
        </mxCell>
        <mxCell id="-FW8mCHG5fzSLNDHaCp1-195" style="vsdxID=60;fillColor=none;gradientColor=none;fillOpacity=0;strokeOpacity=0;strokeWidth=2;spacingTop=-3;spacingBottom=-3;spacingLeft=-3;spacingRight=-3;labelBackgroundColor=none;rounded=1;strokeColor=none;html=1;whiteSpace=wrap;fontColor=#000000;" parent="1" vertex="1">
          <mxGeometry x="152" y="385" width="101" height="40" as="geometry" />
        </mxCell>
        <mxCell id="-FW8mCHG5fzSLNDHaCp1-196" style="vsdxID=61;fillColor=#ffffff;gradientColor=none;fillOpacity=0;strokeOpacity=0;shape=stencil(hZNRkoIwDIZP09dOaATto+PqBTwBI92lsyw4FRU9/VZSlrZblacm+f/pl5Qw3Jzq8qiYgFNvum911VVfM/xgQui2Vkb39sRwy3Dz2Rn1ZbpzW1F8LK1SwJhRFXmyh1pAaQ57fVeUA47ZMqcCOX+6y+PGwdWpdKNI8sVyTOxIezgbEmeh2oULLlB6n7tnEI6HF9IZROAfkELkE9oNfcF4O6wtQKNbD1YWXOQBMLyilSvbfEgMESFACPisI4z1mBpYAnl2OAO8GfFsmLrIebEKsf3GppTkMaw/LYxVz3i9J0laEsDzK2f/WcKH/6P1esJQgck5JUhf/7n2MK4ILY9uGtowvx6vlE3ROuL2Fw==);strokeWidth=2;spacingTop=-3;spacingBottom=-3;spacingLeft=-3;spacingRight=-3;labelBackgroundColor=none;rounded=1;html=1;whiteSpace=wrap;fontColor=#000000;" parent="-FW8mCHG5fzSLNDHaCp1-195" vertex="1">
          <mxGeometry width="101" height="40" as="geometry" />
        </mxCell>
        <mxCell id="-FW8mCHG5fzSLNDHaCp1-197" value="&lt;div style=&quot;font-size: 1px&quot;&gt;&lt;p style=&quot;align:center;margin-left:0;margin-right:0;margin-top:0px;margin-bottom:0px;text-indent:0;valign:middle;direction:ltr;&quot;&gt;&lt;font style=&quot;font-size: 14.11px; font-family: Arial; direction: ltr; letter-spacing: 0px; line-height: 100%; opacity: 1;&quot;&gt;&lt;b&gt;[Clean and] Transform&lt;/b&gt;&lt;/font&gt;&lt;/p&gt;&lt;/div&gt;" style="text;vsdxID=60;fillColor=none;gradientColor=none;fillOpacity=0;strokeOpacity=0;strokeWidth=2;spacingTop=-3;spacingBottom=-3;spacingLeft=-3;spacingRight=-3;labelBackgroundColor=none;rounded=1;strokeColor=none;html=1;whiteSpace=wrap;verticalAlign=middle;align=center;;html=1;fontColor=#000000;" parent="-FW8mCHG5fzSLNDHaCp1-195" vertex="1">
          <mxGeometry x="3.17" y="2.97" width="95.25" height="34.29" as="geometry" />
        </mxCell>
        <mxCell id="-FW8mCHG5fzSLNDHaCp1-198" style="vsdxID=62;fillColor=none;gradientColor=none;fillOpacity=0;strokeOpacity=0;strokeWidth=2;spacingTop=-3;spacingBottom=-3;spacingLeft=-3;spacingRight=-3;labelBackgroundColor=none;rounded=1;strokeColor=none;html=1;whiteSpace=wrap;fontColor=#000000;" parent="1" vertex="1">
          <mxGeometry x="303" y="369" width="68" height="38" as="geometry" />
        </mxCell>
        <mxCell id="-FW8mCHG5fzSLNDHaCp1-199" style="vsdxID=63;fillColor=#ffffff;gradientColor=none;fillOpacity=0;strokeOpacity=0;shape=stencil(fZNNjoMwDIVPk22U2ESIZdWfC8wJUElLNAxUKZ2hc/qmOKhxobDC9nv4c4IFbq91ebEC1LX33bf9c1VfC9wJANfW1rs+vAncC9yeOm/Pvru1FcWXMihBjRlbkUc/1aBKf/xy/5ZySqLODRXI+dP9PjsOsU6le/wChQdSHm+epJprY5hJo1XyxC4DUBlkTNyB2Qek0EgzCTAVjM3VJvRvXJuQFpnMcka7Clvk0gAHVhwwwEulOeOnmXDBgvMzW8Bmloi2Cs4M0zBGZgWnT+d7DcRx0yNDrvmEm9zKgmFO+7pl/Q7Br32CTEdBrsD58SwQrv2x4WVcDFoZ1zS0V2n9fZFCipYQ9w8=);strokeWidth=2;spacingTop=-3;spacingBottom=-3;spacingLeft=-3;spacingRight=-3;labelBackgroundColor=none;rounded=1;html=1;whiteSpace=wrap;fontColor=#000000;" parent="-FW8mCHG5fzSLNDHaCp1-198" vertex="1">
          <mxGeometry width="68" height="38" as="geometry" />
        </mxCell>
        <mxCell id="-FW8mCHG5fzSLNDHaCp1-200" value="&lt;div style=&quot;font-size: 1px&quot;&gt;&lt;p style=&quot;align:center;margin-left:0;margin-right:0;margin-top:0px;margin-bottom:0px;text-indent:0;valign:middle;direction:ltr;&quot;&gt;&lt;font style=&quot;font-size: 14.11px; font-family: Arial; direction: ltr; letter-spacing: 0px; line-height: 100%; opacity: 1;&quot;&gt;&lt;b&gt;Load&lt;/b&gt;&lt;/font&gt;&lt;/p&gt;&lt;/div&gt;" style="text;vsdxID=62;fillColor=none;gradientColor=none;fillOpacity=0;strokeOpacity=0;strokeWidth=2;spacingTop=-3;spacingBottom=-3;spacingLeft=-3;spacingRight=-3;labelBackgroundColor=none;rounded=1;strokeColor=none;html=1;whiteSpace=wrap;verticalAlign=middle;align=center;;html=1;fontColor=#000000;" parent="-FW8mCHG5fzSLNDHaCp1-198" vertex="1">
          <mxGeometry x="3.17" y="3.08" width="62.87" height="31.75" as="geometry" />
        </mxCell>
        <mxCell id="-FW8mCHG5fzSLNDHaCp1-201" style="vsdxID=64;fillColor=none;gradientColor=none;fillOpacity=0;strokeOpacity=0;strokeWidth=2;spacingTop=-3;spacingBottom=-3;spacingLeft=-3;spacingRight=-3;labelBackgroundColor=none;rounded=1;strokeColor=none;html=1;whiteSpace=wrap;fontColor=#000000;" parent="1" vertex="1">
          <mxGeometry x="770" y="684" width="152" height="38" as="geometry" />
        </mxCell>
        <mxCell id="-FW8mCHG5fzSLNDHaCp1-202" style="vsdxID=65;fillColor=#ffffff;gradientColor=none;fillOpacity=0;strokeOpacity=0;shape=stencil(fZNRboMwDIZPk9fIsYsoj1PXXmAnQCUb0RhUKV1pT78Uh5EEWp5i+3f82cGCdue6PGmBcO5t962vpuprQe8C0bS1tqZ3J0F7QbvPzuov213aiu1T6ZQIo0dXnKMeaoTSHj/MXbMPJKk84wBn/nS/j4qDj3Po5m9g88DK48WyVMVab25kpiD4fJUB/V1SkU/AKH8gNlH6jBuF8bE4vLn6jWkD0iL/1y/kS9ZiK7d5zAsJH0CM96wfSvW0HNYK76z3RC95Z/XUQCY3RUwc9pQ2MVEGU0q4n3FiMtZIvwI6P2uKPsTvPDGGnVCsoOVoVghf/aPuMK4CL4lpGt6kMJ6ujnPx2tH+Dw==);strokeWidth=2;spacingTop=-3;spacingBottom=-3;spacingLeft=-3;spacingRight=-3;labelBackgroundColor=none;rounded=1;html=1;whiteSpace=wrap;fontColor=#000000;" parent="-FW8mCHG5fzSLNDHaCp1-201" vertex="1">
          <mxGeometry width="152" height="38" as="geometry" />
        </mxCell>
        <mxCell id="-FW8mCHG5fzSLNDHaCp1-203" value="&lt;div style=&quot;font-size: 1px&quot;&gt;&lt;p style=&quot;align:center;margin-left:0;margin-right:0;margin-top:0px;margin-bottom:0px;text-indent:0;valign:middle;direction:ltr;&quot;&gt;&lt;font style=&quot;font-size: 14.11px; font-family: Arial; direction: ltr; letter-spacing: 0px; line-height: 100%; opacity: 1;&quot;&gt;&lt;b&gt;Report&lt;/b&gt;&lt;/font&gt;&lt;/p&gt;&lt;/div&gt;" style="text;vsdxID=64;fillColor=none;gradientColor=none;fillOpacity=0;strokeOpacity=0;strokeWidth=2;spacingTop=-3;spacingBottom=-3;spacingLeft=-3;spacingRight=-3;labelBackgroundColor=none;rounded=1;strokeColor=none;html=1;whiteSpace=wrap;verticalAlign=middle;align=center;;html=1;fontColor=#000000;" parent="-FW8mCHG5fzSLNDHaCp1-201" vertex="1">
          <mxGeometry x="3.17" y="3.08" width="146.05" height="31.75" as="geometry" />
        </mxCell>
        <mxCell id="-FW8mCHG5fzSLNDHaCp1-204" style="vsdxID=67;fillColor=none;gradientColor=none;fillOpacity=0;strokeOpacity=0;strokeWidth=2;spacingTop=-3;spacingBottom=-3;spacingLeft=-3;spacingRight=-3;labelBackgroundColor=none;rounded=1;strokeColor=none;html=1;whiteSpace=wrap;fontColor=#000000;" parent="1" vertex="1">
          <mxGeometry x="437" y="369" width="62" height="38" as="geometry" />
        </mxCell>
        <mxCell id="-FW8mCHG5fzSLNDHaCp1-205" style="vsdxID=68;fillColor=#ffffff;gradientColor=none;fillOpacity=0;strokeOpacity=0;shape=stencil(fZNRboMwDIZPk9cosUsrHqeuvcBOgEo2ojGoUrpCT78UB80uFJ7i+P/jzwlWuL9UxdkpMJcutN/u5suuUviuAHxTueC7uFJ4ULj/bIP7Cu21KSk+F1EJZtxxJXnsQw2mCKcPf3e0ZzTaXUYJcv60v4+KfcpTakgnUHgk5ekaSGqlNoUbnVnDvlSlB0qDnuoOIPw9UrjVNhEPyAVjdfMWAWrfMNQcdW4F7iptvtOwlcRGEkZ6bUAyvmoKFyw4v7QFbGFJaKvgwjA1k+lNLul5f/8NSVx+ZSg1r3DZqywY5rTsme0zhXz3iZL3glKB8/tZQFz7Z+NiHA0aGl/XNFk8/zxKcYvGEA9/);strokeWidth=2;spacingTop=-3;spacingBottom=-3;spacingLeft=-3;spacingRight=-3;labelBackgroundColor=none;rounded=1;html=1;whiteSpace=wrap;fontColor=#000000;" parent="-FW8mCHG5fzSLNDHaCp1-204" vertex="1">
          <mxGeometry width="62" height="38" as="geometry" />
        </mxCell>
        <mxCell id="-FW8mCHG5fzSLNDHaCp1-206" value="&lt;div style=&quot;font-size: 1px&quot;&gt;&lt;p style=&quot;align:center;margin-left:0;margin-right:0;margin-top:0px;margin-bottom:0px;text-indent:0;valign:middle;direction:ltr;&quot;&gt;&lt;font style=&quot;font-size: 14.11px; font-family: Arial; direction: ltr; letter-spacing: 0px; line-height: 100%; opacity: 1;&quot;&gt;&lt;b&gt;Query&lt;/b&gt;&lt;/font&gt;&lt;/p&gt;&lt;/div&gt;" style="text;vsdxID=67;fillColor=none;gradientColor=none;fillOpacity=0;strokeOpacity=0;strokeWidth=2;spacingTop=-3;spacingBottom=-3;spacingLeft=-3;spacingRight=-3;labelBackgroundColor=none;rounded=1;strokeColor=none;html=1;whiteSpace=wrap;verticalAlign=middle;align=center;;html=1;fontColor=#000000;" parent="-FW8mCHG5fzSLNDHaCp1-204" vertex="1">
          <mxGeometry x="3.18" y="3.08" width="56.52" height="31.75" as="geometry" />
        </mxCell>
        <mxCell id="-FW8mCHG5fzSLNDHaCp1-207" style="vsdxID=69;fillColor=none;gradientColor=none;strokeColor=none;strokeWidth=4;spacingTop=-3;spacingBottom=-3;spacingLeft=-3;spacingRight=-3;labelBackgroundColor=none;rounded=1;html=1;whiteSpace=wrap;fontColor=#000000;" parent="1" vertex="1">
          <mxGeometry x="960" y="450" width="85.5" height="66" as="geometry" />
        </mxCell>
        <mxCell id="-FW8mCHG5fzSLNDHaCp1-208" style="vsdxID=70;fillColor=#FFFFFF;gradientColor=none;shape=stencil(hZNdcsIgEIBPwyuz7CYqjx2rF+gJMoY2TNvEwdhqT1/MEgMhtTyxy8fy8Sdoe2qqoxEIp9517+bb1n0j6Fkg2rYxzva+J2gnaPvaOfPmunNbc3ysPIkwZEzNc9SNRqjc4cX+GM6R3ICO24ohrvLZfd1WvzBbynUoceUEDNGe2cPZMax4EGW5CbSKcbhgEl5xNFEIUSvKgFOKh3AlNU7Lw5M3+LBtZAuJqvbl1SNdSF31vf7dN9pQyCgACUWqGR0SZdRfrrqQqBPf+aRcWK9lgal04jM5ptLxzmjO0OJpLRhPU5auI7edePXPdWO+vfTBjNbxoVH2IBecH79f3xk+zRjMf5RP8W+k3S8=);strokeColor=#5e5e5e;strokeWidth=4;spacingTop=-3;spacingBottom=-3;spacingLeft=-3;spacingRight=-3;labelBackgroundColor=none;rounded=1;html=1;whiteSpace=wrap;fontColor=#000000;" parent="-FW8mCHG5fzSLNDHaCp1-207" vertex="1">
          <mxGeometry width="85.5" height="66" as="geometry" />
        </mxCell>
        <mxCell id="-FW8mCHG5fzSLNDHaCp1-209" style="vsdxID=71;fillColor=#FFFFFF;gradientColor=none;shape=stencil(fVLRUsMgEPwaXm/gDgg8OrX9Ab8g06Bh1KRDU61+vTRHFXQsT9zeLrc7nKDNcewPQaA8Lml+Du9xWEZB9wIxTmNIcck3QVtBm8c5hac0n6aB60OfmShXJAysURc2yj7tH+JnYEwCqc5wg5Wv89tl4rn0ufXBleVyx8yXOFVM1KC7lu1A+VqwPyV+WxVJBwaLpEDWAxJDZ2SIrhT8fla6QqFC0UDX2QWyBgz9DJd3fwwbA1Y1hnWOQLcMmw6889UxrXuNIOuj2iQWAX0bRiswug2TnUvThtEE5G6GcR68F///Vb6sK7EWvE117/f6ZIhXj7Zf);strokeColor=#ababab;strokeWidth=4;spacingTop=-3;spacingBottom=-3;spacingLeft=-3;spacingRight=-3;labelBackgroundColor=none;rounded=1;html=1;whiteSpace=wrap;fontColor=#000000;" parent="-FW8mCHG5fzSLNDHaCp1-207" vertex="1">
          <mxGeometry width="85.5" height="66" as="geometry" />
        </mxCell>
        <mxCell id="-FW8mCHG5fzSLNDHaCp1-210" style="vsdxID=72;fillColor=#FFFFFF;gradientColor=none;shape=stencil(fZJBUsMwDEVP463Gtiw5XjKlXIATZBpDMkDScVMonB43cmkMTLOynv639SdSuDn07T4qqw9zml7ix9DNvcJ7Ze0w9jENcz4p3CrcPE0pPqfpOHZS79ustHohsROPOautbtPucfiKwjSg8SQNcb5N7+cXT6UvrU+pmgAhLORBxK/DuBJbBhMqAxEYXht2xyTXm2JpwDbFUhDZH3SygjCjy8UFkQHniwqLikC7oiqIMOe7vq/v/sxMDoKrZmYGf2tk8sBh/XE9PzdAuO7XWdgAmToLeyD9j6OE4BzC1rnYAYabua6/6pLLZFIFy4dlTZZCNmzd+71SGck64vYb);strokeColor=#545454;strokeWidth=4;spacingTop=-3;spacingBottom=-3;spacingLeft=-3;spacingRight=-3;labelBackgroundColor=none;rounded=1;html=1;whiteSpace=wrap;fontColor=#000000;" parent="-FW8mCHG5fzSLNDHaCp1-207" vertex="1">
          <mxGeometry width="85.5" height="66" as="geometry" />
        </mxCell>
        <mxCell id="-FW8mCHG5fzSLNDHaCp1-211" style="vsdxID=73;fillColor=#FFFFFF;gradientColor=none;shape=stencil(dZFBEoIwDEVP020nTURk6SBewBMwUKWjAlNAwdNbmi5Axl3//y9NmgpKuypvtUDoetvc9duUfSXoJBBNXWlrencSlAlKr43VN9sMdcm6zR2J4B1dco2aaYTcFhfz0eyBJBVHHHDls3nNHceQczQt1ZnBh6n/gglJpZZwMVi+Vq3xIJO9TJCtEdlCGR0CFBwFIGEXKGIvknF41kQbyveG42ZWh6ym/S2h1B38Br3g5S+z3207i3+Ksi8=);strokeColor=#5e5e5e;strokeWidth=4;spacingTop=-3;spacingBottom=-3;spacingLeft=-3;spacingRight=-3;labelBackgroundColor=none;rounded=1;html=1;whiteSpace=wrap;fontColor=#000000;" parent="-FW8mCHG5fzSLNDHaCp1-207" vertex="1">
          <mxGeometry width="85.5" height="66" as="geometry" />
        </mxCell>
        <mxCell id="-FW8mCHG5fzSLNDHaCp1-212" value="&lt;div style=&quot;font-size: 1px&quot;&gt;&lt;p style=&quot;align:center;margin-left:0;margin-right:0;margin-top:0px;margin-bottom:0px;text-indent:0;valign:middle;direction:ltr;&quot;&gt;&lt;font style=&quot;font-size: 9.88px; font-family: Arial; direction: ltr; letter-spacing: 0px; line-height: 100%; opacity: 1;&quot;&gt;Chart&lt;/font&gt;&lt;/p&gt;&lt;/div&gt;" style="text;vsdxID=69;fillColor=none;gradientColor=none;strokeColor=none;strokeWidth=4;spacingTop=-3;spacingBottom=-3;spacingLeft=-3;spacingRight=-3;labelBackgroundColor=none;rounded=1;html=1;whiteSpace=wrap;verticalAlign=middle;align=center;;html=1;fontColor=#000000;" parent="-FW8mCHG5fzSLNDHaCp1-207" vertex="1">
          <mxGeometry x="8.226136363636362" y="-0.048" width="69.92863636363636" height="9.911999999999999" as="geometry" />
        </mxCell>
        <mxCell id="-FW8mCHG5fzSLNDHaCp1-213" style="vsdxID=74;fillColor=none;gradientColor=none;strokeColor=none;strokeWidth=2;spacingTop=-3;spacingBottom=-3;spacingLeft=-3;spacingRight=-3;labelBackgroundColor=none;rounded=1;html=1;whiteSpace=wrap;fontColor=#000000;" parent="1" vertex="1">
          <mxGeometry x="964.5" y="580" width="76" height="50" as="geometry" />
        </mxCell>
        <mxCell id="-FW8mCHG5fzSLNDHaCp1-214" style="vsdxID=75;fillColor=#ffffff;gradientColor=none;shape=stencil(UzV2Ls5ILEhVNTIoLinKz04tz0wpyVA1dlE1MsrMy0gtyiwBslSNXVWNndPyi1LTi/JL81Ig/IJEkEoQKze/DGRCBUSfAUiHkUElMs8NojAnMw9JoZEpmSqhXKxKDchUiWI7kIHwXVpmTg6yDHo4AIUgYWjsCgA=);strokeColor=#5e5e5e;strokeWidth=2;spacingTop=-3;spacingBottom=-3;spacingLeft=-3;spacingRight=-3;labelBackgroundColor=none;rounded=0;html=1;whiteSpace=wrap;fontColor=#000000;" parent="-FW8mCHG5fzSLNDHaCp1-213" vertex="1">
          <mxGeometry width="76" height="50" as="geometry" />
        </mxCell>
        <mxCell id="-FW8mCHG5fzSLNDHaCp1-215" style="vsdxID=76;fillColor=#ffffff;gradientColor=none;shape=stencil(UzV2Ls5ILEhVNTIoLinKz04tz0wpyVA1dlE1MsrMy0gtyiwBslSNXVWNndPyi1LTi/JL81Ig/IJEkEoQKze/DGRCBUSfkSlIi5FBJYRrAOa5QVTmZOYhqTQ1IFMl1AqsStGsJ0Epiv1ABsKDaZk5Ocgy6EEBFIIEo7ErAA==);strokeColor=#5e5e5e;strokeWidth=2;spacingTop=-3;spacingBottom=-3;spacingLeft=-3;spacingRight=-3;labelBackgroundColor=none;rounded=0;html=1;whiteSpace=wrap;fontColor=#000000;" parent="-FW8mCHG5fzSLNDHaCp1-213" vertex="1">
          <mxGeometry width="76" height="50" as="geometry" />
        </mxCell>
        <mxCell id="-FW8mCHG5fzSLNDHaCp1-216" style="vsdxID=77;fillColor=#ffffff;gradientColor=none;shape=stencil(UzV2Ls5ILEhVNTIoLinKz04tz0wpyVA1dlE1MsrMy0gtyiwBslSNXVWNndPyi1LTi/JL81Ig/IJEkEoQKze/DGRCBUSfqQFIi5FBJYQL4blBVOZk5iGpNDclU6WRKW6laNaToBTFfiAD4cG0zJwcZBn0oAAKQYLR2BUA);strokeColor=#5e5e5e;strokeWidth=2;spacingTop=-3;spacingBottom=-3;spacingLeft=-3;spacingRight=-3;labelBackgroundColor=none;rounded=0;html=1;whiteSpace=wrap;fontColor=#000000;" parent="-FW8mCHG5fzSLNDHaCp1-213" vertex="1">
          <mxGeometry width="76" height="50" as="geometry" />
        </mxCell>
        <mxCell id="-FW8mCHG5fzSLNDHaCp1-217" style="vsdxID=78;fillColor=#ffffff;gradientColor=none;shape=stencil(UzV2Ls5ILEhVNTIoLinKz04tz0wpyVA1dlE1MsrMy0gtyiwBslSNXVWNndPyi1LTi/JL81Ig/IJEkEoQKze/DGRCBUSfuSlIi5FBJYRrAOa5QVTmZOYhqTQ0MCBXqZEpbrVoDiBBKYoDgAyEF9Myc3KQZdADAygECUhjVwA=);strokeColor=#5e5e5e;strokeWidth=2;spacingTop=-3;spacingBottom=-3;spacingLeft=-3;spacingRight=-3;labelBackgroundColor=none;rounded=0;html=1;whiteSpace=wrap;fontColor=#000000;" parent="-FW8mCHG5fzSLNDHaCp1-213" vertex="1">
          <mxGeometry width="76" height="50" as="geometry" />
        </mxCell>
        <mxCell id="-FW8mCHG5fzSLNDHaCp1-218" style="vsdxID=79;fillColor=#ffffff;gradientColor=none;shape=stencil(UzV2Ls5ILEhVNTIoLinKz04tz0wpyVA1dlE1MsrMy0gtyiwBslSNXVWNndPyi1LTi/JL81Ig/IJEkEoQKze/DGRCBUSfAUiHkUElhGdkCua6QVTmZOYhqYTKkaHU1AC3UgMyVaJaD2QgPJiWmZODLIMeFEAhSDAauwIA);strokeColor=#5e5e5e;strokeWidth=2;spacingTop=-3;spacingBottom=-3;spacingLeft=-3;spacingRight=-3;labelBackgroundColor=none;rounded=0;html=1;whiteSpace=wrap;fontColor=#000000;" parent="-FW8mCHG5fzSLNDHaCp1-213" vertex="1">
          <mxGeometry width="76" height="50" as="geometry" />
        </mxCell>
        <mxCell id="-FW8mCHG5fzSLNDHaCp1-219" style="vsdxID=80;fillColor=#ffffff;gradientColor=none;shape=stencil(UzV2Ls5ILEhVNTIoLinKz04tz0wpyVA1dlE1MsrMy0gtyiwBslSNXVWNndPyi1LTi/JL81Ig/IJEkEoQKze/DGRCBUSfkSlIi5FBJQrXDaI0JzMPSampAblKoVysStEcQIJSVAcAGQg/pmXm5CDLoIcGUAgSksauAA==);strokeColor=#5e5e5e;strokeWidth=2;spacingTop=-3;spacingBottom=-3;spacingLeft=-3;spacingRight=-3;labelBackgroundColor=none;rounded=0;html=1;whiteSpace=wrap;fontColor=#000000;" parent="-FW8mCHG5fzSLNDHaCp1-213" vertex="1">
          <mxGeometry width="76" height="50" as="geometry" />
        </mxCell>
        <mxCell id="-FW8mCHG5fzSLNDHaCp1-220" style="vsdxID=81;fillColor=#ffffff;gradientColor=none;shape=stencil(UzV2Ls5ILEhVNTIoLinKz04tz0wpyVA1dlE1MsrMy0gtyiwBslSNXVWNndPyi1LTi/JL81Ig/IJEkEoQKze/DGRCBUSfqQFIi5FBJYRrZArmukGU5mTmISk1NyVXKdQSrErRHECCUlQHABkIP6Zl5uQgy6CHBlAIEpLGrgA=);strokeColor=#5e5e5e;strokeWidth=2;spacingTop=-3;spacingBottom=-3;spacingLeft=-3;spacingRight=-3;labelBackgroundColor=none;rounded=0;html=1;whiteSpace=wrap;fontColor=#000000;" parent="-FW8mCHG5fzSLNDHaCp1-213" vertex="1">
          <mxGeometry width="76" height="50" as="geometry" />
        </mxCell>
        <mxCell id="-FW8mCHG5fzSLNDHaCp1-221" style="vsdxID=82;fillColor=#ffffff;gradientColor=none;shape=stencil(UzV2Ls5ILEhVNTIoLinKz04tz0wpyVA1dlE1MsrMy0gtyiwBslSNXVWNndPyi1LTi/JL81Ig/IJEkEoQKze/DGRCBUSfuSlIi5FBJYRrBOG6QZTmZOYhKTU0MCBbrakBbrVoTiBBKaoLgAyEL9Myc3KQZdDDAygECUtjVwA=);strokeColor=#5e5e5e;strokeWidth=2;spacingTop=-3;spacingBottom=-3;spacingLeft=-3;spacingRight=-3;labelBackgroundColor=none;rounded=0;html=1;whiteSpace=wrap;fontColor=#000000;" parent="-FW8mCHG5fzSLNDHaCp1-213" vertex="1">
          <mxGeometry width="76" height="50" as="geometry" />
        </mxCell>
        <mxCell id="-FW8mCHG5fzSLNDHaCp1-222" style="vsdxID=83;fillColor=#ffffff;gradientColor=none;shape=stencil(UzV2Ls5ILEhVNTIoLinKz04tz0wpyVA1dlE1MsrMy0gtyiwBslSNXVWNndPyi1LTi/JL81Ig/IJEkEoQKze/DGRCBUSfAUiHkUElhGcK4bpBVOZk5iGpNDIlV6m5KW6lBmSqRLUeyEB4MC0zJwdZBj0ogEKQYDR2BQA=);strokeColor=#5e5e5e;strokeWidth=2;spacingTop=-3;spacingBottom=-3;spacingLeft=-3;spacingRight=-3;labelBackgroundColor=none;rounded=0;html=1;whiteSpace=wrap;fontColor=#000000;" parent="-FW8mCHG5fzSLNDHaCp1-213" vertex="1">
          <mxGeometry width="76" height="50" as="geometry" />
        </mxCell>
        <mxCell id="-FW8mCHG5fzSLNDHaCp1-223" style="vsdxID=84;fillColor=#ffffff;gradientColor=none;shape=stencil(UzV2Ls5ILEhVNTIoLinKz04tz0wpyVA1dlE1MsrMy0gtyiwBslSNXVWNndPyi1LTi/JL81Ig/IJEkEoQKze/DGRCBUSfkSlIi5FBJYRragDmukGU5mTmISmFypGh1NwUt1I0B5CgFNUBQAbCj2mZOTnIMuihARSChKSxKwA=);strokeColor=#5e5e5e;strokeWidth=2;spacingTop=-3;spacingBottom=-3;spacingLeft=-3;spacingRight=-3;labelBackgroundColor=none;rounded=0;html=1;whiteSpace=wrap;fontColor=#000000;" parent="-FW8mCHG5fzSLNDHaCp1-213" vertex="1">
          <mxGeometry width="76" height="50" as="geometry" />
        </mxCell>
        <mxCell id="-FW8mCHG5fzSLNDHaCp1-224" style="vsdxID=85;fillColor=#ffffff;gradientColor=none;shape=stencil(UzV2Ls5ILEhVNTIoLinKz04tz0wpyVA1dlE1MsrMy0gtyiwBslSNXVWNndPyi1LTi/JL81Ig/IJEkEoQKze/DGRCBUSfqQFIi5FBJQrXDaI0JzMPSam5KblKoVysStEcQIJSVAcAGQg/pmXm5CDLoIcGUAgSksauAA==);strokeColor=#5e5e5e;strokeWidth=2;spacingTop=-3;spacingBottom=-3;spacingLeft=-3;spacingRight=-3;labelBackgroundColor=none;rounded=0;html=1;whiteSpace=wrap;fontColor=#000000;" parent="-FW8mCHG5fzSLNDHaCp1-213" vertex="1">
          <mxGeometry width="76" height="50" as="geometry" />
        </mxCell>
        <mxCell id="-FW8mCHG5fzSLNDHaCp1-225" style="vsdxID=86;fillColor=#ffffff;gradientColor=none;shape=stencil(UzV2Ls5ILEhVNTIoLinKz04tz0wpyVA1dlE1MsrMy0gtyiwBslSNXVWNndPyi1LTi/JL81Ig/IJEkEoQKze/DGRCBUSfuSlIi5FBJYRragDmukGU5mTmISk1NDAgWy3UGqxq0ZxAglJUFwAZCF+mZebkIMughwdQCBKWxq4A);strokeColor=#5e5e5e;strokeWidth=2;spacingTop=-3;spacingBottom=-3;spacingLeft=-3;spacingRight=-3;labelBackgroundColor=none;rounded=0;html=1;whiteSpace=wrap;fontColor=#000000;" parent="-FW8mCHG5fzSLNDHaCp1-213" vertex="1">
          <mxGeometry width="76" height="50" as="geometry" />
        </mxCell>
        <mxCell id="-FW8mCHG5fzSLNDHaCp1-226" style="vsdxID=87;fillColor=#ffffff;gradientColor=none;shape=stencil(UzV2Ls5ILEhVNTIoLinKz04tz0wpyVA1dlE1MsrMy0gtyiwBslSNXVWNndPyi1LTi/JL81Ig/IJEkEoQKze/DGRCBUSfAUiHkUElhGduCua6QVTmZOYhqTQyJVepoYEBbrUG5CpFdQCQgfBiWmZODrIMemAAhSABaewKAA==);strokeColor=#5e5e5e;strokeWidth=2;spacingTop=-3;spacingBottom=-3;spacingLeft=-3;spacingRight=-3;labelBackgroundColor=none;rounded=0;html=1;whiteSpace=wrap;fontColor=#000000;" parent="-FW8mCHG5fzSLNDHaCp1-213" vertex="1">
          <mxGeometry width="76" height="50" as="geometry" />
        </mxCell>
        <mxCell id="-FW8mCHG5fzSLNDHaCp1-227" style="vsdxID=88;fillColor=#ffffff;gradientColor=none;shape=stencil(UzV2Ls5ILEhVNTIoLinKz04tz0wpyVA1dlE1MsrMy0gtyiwBslSNXVWNndPyi1LTi/JL81Ig/IJEkEoQKze/DGRCBUSfkSlIi5FBJYRrDuG6QZTmZOYhKTU1IFepoYEBbrVoLiBFLaoTgAyEL9Myc3KQZdDDAygECUtjVwA=);strokeColor=#5e5e5e;strokeWidth=2;spacingTop=-3;spacingBottom=-3;spacingLeft=-3;spacingRight=-3;labelBackgroundColor=none;rounded=0;html=1;whiteSpace=wrap;fontColor=#000000;" parent="-FW8mCHG5fzSLNDHaCp1-213" vertex="1">
          <mxGeometry width="76" height="50" as="geometry" />
        </mxCell>
        <mxCell id="-FW8mCHG5fzSLNDHaCp1-228" style="vsdxID=89;fillColor=#ffffff;gradientColor=none;shape=stencil(UzV2Ls5ILEhVNTIoLinKz04tz0wpyVA1dlE1MsrMy0gtyiwBslSNXVWNndPyi1LTi/JL81Ig/IJEkEoQKze/DGRCBUSfqQFIi5FBJYRrbgrmukGU5mTmISmFypGh1NDAALdaNBeQohbVCUAGwpdpmTk5yDLo4QEUgoSlsSsA);strokeColor=#5e5e5e;strokeWidth=2;spacingTop=-3;spacingBottom=-3;spacingLeft=-3;spacingRight=-3;labelBackgroundColor=none;rounded=0;html=1;whiteSpace=wrap;fontColor=#000000;" parent="-FW8mCHG5fzSLNDHaCp1-213" vertex="1">
          <mxGeometry width="76" height="50" as="geometry" />
        </mxCell>
        <mxCell id="-FW8mCHG5fzSLNDHaCp1-229" style="vsdxID=90;fillColor=#ffffff;gradientColor=none;shape=stencil(UzV2Ls5ILEhVNTIoLinKz04tz0wpyVA1dlE1MsrMy0gtyiwBslSNXVWNndPyi1LTi/JL81Ig/IJEkEoQKze/DGRCBUSfuSlIi5FBJQrXDaI0JzMPSamhgQHZamF8rIrR3ECKWlQ3ABkIf6Zl5uQgy6CHCFAIEprGrgA=);strokeColor=#5e5e5e;strokeWidth=2;spacingTop=-3;spacingBottom=-3;spacingLeft=-3;spacingRight=-3;labelBackgroundColor=none;rounded=0;html=1;whiteSpace=wrap;fontColor=#000000;" parent="-FW8mCHG5fzSLNDHaCp1-213" vertex="1">
          <mxGeometry width="76" height="50" as="geometry" />
        </mxCell>
        <mxCell id="-FW8mCHG5fzSLNDHaCp1-230" style="vsdxID=91;fillColor=#ffffff;gradientColor=none;shape=stencil(dY9LDoAgDERP0z1p4wlQ70EiClHBAP5uL6QLiYm7mfZNMwWS0ahNA4qYgp/1aYdkgFpAtM7oYFNWQB2QHH3QU/C7G9hvqpBFrf4oFy7OiZJAcdeuZ3Cx7hfEpiazeO9ztXr37ZJH/Ad1Dw==);strokeColor=#5e5e5e;strokeWidth=2;spacingTop=-3;spacingBottom=-3;spacingLeft=-3;spacingRight=-3;labelBackgroundColor=none;rounded=0;html=1;whiteSpace=wrap;fontColor=#000000;" parent="-FW8mCHG5fzSLNDHaCp1-213" vertex="1">
          <mxGeometry width="76" height="50" as="geometry" />
        </mxCell>
        <mxCell id="-FW8mCHG5fzSLNDHaCp1-231" style="vsdxID=92;fillColor=#ffffff;gradientColor=none;shape=stencil(dY9LDoAgDERP0z1p4wn83MMEFKICQfzdXrAmGhN389ppOwUqZ916BSjmGNygNiOjBqoA0VitgolJAdVAZeeC6oNbrGT2bXZmNbk1b9h5Dos8guJgFBc17ByN/XfeeFuTeC5wuHfvmyaV+BOqTw==);strokeColor=#5e5e5e;strokeWidth=2;spacingTop=-3;spacingBottom=-3;spacingLeft=-3;spacingRight=-3;labelBackgroundColor=none;rounded=0;html=1;whiteSpace=wrap;fontColor=#000000;" parent="-FW8mCHG5fzSLNDHaCp1-213" vertex="1">
          <mxGeometry width="76" height="50" as="geometry" />
        </mxCell>
        <mxCell id="-FW8mCHG5fzSLNDHaCp1-232" style="vsdxID=93;fillColor=#ffffff;gradientColor=none;shape=stencil(dY9LDoAgDERP0z1p4wlQ70EiClGBAP5uL6QLjYm7mfa1nQLJZFTQgCLl6Gd92CEboBYQrTM62lwUUAckRx/1FP3mBvZBVbKq1e91w8lzjagjKC627HomF+v+SWzeaBHPBQ737n3TlBJ/Qt0N);strokeColor=#5e5e5e;strokeWidth=2;spacingTop=-3;spacingBottom=-3;spacingLeft=-3;spacingRight=-3;labelBackgroundColor=none;rounded=0;html=1;whiteSpace=wrap;fontColor=#000000;" parent="-FW8mCHG5fzSLNDHaCp1-213" vertex="1">
          <mxGeometry width="76" height="50" as="geometry" />
        </mxCell>
        <mxCell id="-FW8mCHG5fzSLNDHaCp1-233" style="vsdxID=94;fillColor=#ffffff;gradientColor=none;shape=stencil(dY9LDoAgDERP0z1pYzyAn3uQiEJUIIi/2wt2oTFxN9O+tlOgatHSK0CxxOBGtZsuaqAaEI3VKpiYFFADVPUuqCG41XbsvcxkVrPb8oaD58oij6A42YrbtUxOxv6TWLzRJJ4LHO7d+6ZJJf6Emgs=);strokeColor=#5e5e5e;strokeWidth=2;spacingTop=-3;spacingBottom=-3;spacingLeft=-3;spacingRight=-3;labelBackgroundColor=none;rounded=0;html=1;whiteSpace=wrap;fontColor=#000000;" parent="-FW8mCHG5fzSLNDHaCp1-213" vertex="1">
          <mxGeometry width="76" height="50" as="geometry" />
        </mxCell>
        <mxCell id="-FW8mCHG5fzSLNDHaCp1-234" style="vsdxID=95;fillColor=#ffffff;gradientColor=none;shape=stencil(fY9LDoAgDERP0z228QR+7kEiClGBAP5uL6QLjQt3M+1rOwVqopZeAYqYgpvVYYakgVpANFarYFJWQB1QM7qgpuA2O7D3spBFrW4vG06eq4QoMygu9ux6Rhdjf1Cs32wWzw2O9+598+QS/0LdDQ==);strokeColor=#5e5e5e;strokeWidth=2;spacingTop=-3;spacingBottom=-3;spacingLeft=-3;spacingRight=-3;labelBackgroundColor=none;rounded=0;html=1;whiteSpace=wrap;fontColor=#000000;" parent="-FW8mCHG5fzSLNDHaCp1-213" vertex="1">
          <mxGeometry width="76" height="50" as="geometry" />
        </mxCell>
        <mxCell id="-FW8mCHG5fzSLNDHaCp1-235" style="vsdxID=96;fillColor=#ffffff;gradientColor=none;shape=stencil(dY9LDoAgDERP0z1p4wkU72EiClHBAP5uL9iFxMTdTPvaToHqoLtVAYoQvZvUYfqogRpANFYrb2JSQBKoHpxXo3eb7dmvXSazWtyeN5w8J/IEiosdVo9tmZyN/SUrUZJJvAc4W9n7hkklfoTkDQ==);strokeColor=#5e5e5e;strokeWidth=2;spacingTop=-3;spacingBottom=-3;spacingLeft=-3;spacingRight=-3;labelBackgroundColor=none;rounded=0;html=1;whiteSpace=wrap;fontColor=#000000;" parent="-FW8mCHG5fzSLNDHaCp1-213" vertex="1">
          <mxGeometry width="76" height="50" as="geometry" />
        </mxCell>
        <mxCell id="-FW8mCHG5fzSLNDHaCp1-236" style="vsdxID=97;fillColor=#ffffff;gradientColor=none;shape=stencil(UzV2Ls5ILEhVNTIoLinKz04tz0wpyVA1dlE1MsrMy0gtyiwBslSNXVWNndPyi1LTi/JL81Ig/IJEkEoQKze/DGRCBUSfkSlIi5FBJQrXDaI0JzMPt1JTA2SlQAbCCojrkOXQnQMUgnjF2BUA);strokeColor=#5e5e5e;strokeWidth=2;spacingTop=-3;spacingBottom=-3;spacingLeft=-3;spacingRight=-3;labelBackgroundColor=none;rounded=0;html=1;whiteSpace=wrap;fontColor=#000000;" parent="-FW8mCHG5fzSLNDHaCp1-213" vertex="1">
          <mxGeometry width="76" height="50" as="geometry" />
        </mxCell>
        <mxCell id="-FW8mCHG5fzSLNDHaCp1-237" style="vsdxID=98;fillColor=#ffffff;gradientColor=none;shape=stencil(dY9LDoAgDERP0z1pwwn83MNEFKICQfzdXrAmGhN389ppOwUqZt14BSjmGNygNtNGDVQCorFaBROTAqqAis4F1Qe32JbZN9mZ1eTWvGHnOSnyCIqDEeWFNVtHY/+tN97WJJ4TnO7d+8ZJJX6FqhM=);strokeColor=#5e5e5e;strokeWidth=2;spacingTop=-3;spacingBottom=-3;spacingLeft=-3;spacingRight=-3;labelBackgroundColor=none;rounded=0;html=1;whiteSpace=wrap;fontColor=#000000;" parent="-FW8mCHG5fzSLNDHaCp1-213" vertex="1">
          <mxGeometry width="76" height="50" as="geometry" />
        </mxCell>
        <mxCell id="-FW8mCHG5fzSLNDHaCp1-238" style="vsdxID=99;fillColor=#ffffff;gradientColor=none;shape=stencil(dY9LDoAgDERP0z1pQzyAn3uQiEJUIIi/2wvpQmPibqZ9badA9WpU0IBiTdFP+rB9MkANIFpndLQpK6AWqB581GP0m+vZB1XIoha/lw0nz1WyjKC42CLbjtHZun9UijeaxXOC07173zi5xK9QewM=);strokeColor=#5e5e5e;strokeWidth=2;spacingTop=-3;spacingBottom=-3;spacingLeft=-3;spacingRight=-3;labelBackgroundColor=none;rounded=0;html=1;whiteSpace=wrap;fontColor=#000000;" parent="-FW8mCHG5fzSLNDHaCp1-213" vertex="1">
          <mxGeometry width="76" height="50" as="geometry" />
        </mxCell>
        <mxCell id="-FW8mCHG5fzSLNDHaCp1-239" style="vsdxID=100;fillColor=#ffffff;gradientColor=none;shape=stencil(fY9LDoAwCERPwx4hnsDPPUystlFbU+vv9ray0LhwNwMPGICLRTezAsIleDeo3bRBA5dAZKxW3oSogCvgonNe9d6tthU/N4lManJb2nDIXIaYZghP8ZTfthZ2NPaHzfHNRvEckXzv3jdQLMkzXF0=);strokeColor=#5e5e5e;strokeWidth=2;spacingTop=-3;spacingBottom=-3;spacingLeft=-3;spacingRight=-3;labelBackgroundColor=none;rounded=0;html=1;whiteSpace=wrap;fontColor=#000000;" parent="-FW8mCHG5fzSLNDHaCp1-213" vertex="1">
          <mxGeometry width="76" height="50" as="geometry" />
        </mxCell>
        <mxCell id="-FW8mCHG5fzSLNDHaCp1-240" style="vsdxID=101;fillColor=#ffffff;gradientColor=none;shape=stencil(dY9LDoAgDERP0z2hIR7Azz1IQCEqEMDf7YV0oTFxN9O+tlPANhkZNHCWcvSzPqzKBrADzq0zOtpcFGAP2I4+6in6zSnyQVayqtXvdcNJc6xOcHaRE2QHIhfrfslGvMkingOU7d37hiklegT7Gw==);strokeColor=#5e5e5e;strokeWidth=2;spacingTop=-3;spacingBottom=-3;spacingLeft=-3;spacingRight=-3;labelBackgroundColor=none;rounded=0;html=1;whiteSpace=wrap;fontColor=#000000;" parent="-FW8mCHG5fzSLNDHaCp1-213" vertex="1">
          <mxGeometry width="76" height="50" as="geometry" />
        </mxCell>
        <mxCell id="-FW8mCHG5fzSLNDHaCp1-241" style="vsdxID=102;fillColor=#ffffff;gradientColor=none;shape=stencil(dY9LDoAgDERP0z1pQzyA4j1MRCEqGMTf7QW70Ji4m2lf2ylQuZhm1oBiicEPerdtNEAVIFpndLAxKSAFVHY+6D741bXs5yaTWU1+yxsOnkOZR1CcbKW4bc3oaN0/Wsg3msRzgtO9e984qcSvkLoA);strokeColor=#5e5e5e;strokeWidth=2;spacingTop=-3;spacingBottom=-3;spacingLeft=-3;spacingRight=-3;labelBackgroundColor=none;rounded=0;html=1;whiteSpace=wrap;fontColor=#000000;" parent="-FW8mCHG5fzSLNDHaCp1-213" vertex="1">
          <mxGeometry width="76" height="50" as="geometry" />
        </mxCell>
        <mxCell id="-FW8mCHG5fzSLNDHaCp1-242" style="vsdxID=103;fillColor=#ffffff;gradientColor=none;shape=stencil(UzV2Ls5ILEhVNTIoLinKz04tz0wpyVA1dlE1MsrMy0gtyiwBslSNXVWNndPyi1LTi/JL81Ig/IJEkEoQKze/DGRCBUSfqQFIi5FBJQrXDaI0JzMPt1JzU2SlQAbCCojrkOXQnQMUgnjF2BUA);strokeColor=#5e5e5e;strokeWidth=2;spacingTop=-3;spacingBottom=-3;spacingLeft=-3;spacingRight=-3;labelBackgroundColor=none;rounded=0;html=1;whiteSpace=wrap;fontColor=#000000;" parent="-FW8mCHG5fzSLNDHaCp1-213" vertex="1">
          <mxGeometry width="76" height="50" as="geometry" />
        </mxCell>
        <mxCell id="-FW8mCHG5fzSLNDHaCp1-243" style="vsdxID=104;fillColor=#ffffff;gradientColor=none;shape=stencil(UzV2Ls5ILEhVNTIoLinKz04tz0wpyVA1dlE1MsrMy0gtyiwBslSNXVWNndPyi1LTi/JL81Ig/IJEkEoQKze/DGRCBUSfuSlIi5FBJYRragDmukGU5mTm4VYK5UKVAhkIKyCuQ5ZDdw5QCOIVY1cA);strokeColor=#5e5e5e;strokeWidth=2;spacingTop=-3;spacingBottom=-3;spacingLeft=-3;spacingRight=-3;labelBackgroundColor=none;rounded=0;html=1;whiteSpace=wrap;fontColor=#000000;" parent="-FW8mCHG5fzSLNDHaCp1-213" vertex="1">
          <mxGeometry width="76" height="50" as="geometry" />
        </mxCell>
        <mxCell id="-FW8mCHG5fzSLNDHaCp1-244" style="vsdxID=105;fillColor=#ffffff;gradientColor=none;shape=stencil(fY9LDoAgDERP0z3SGA+AeA8TUIgKBvB3eyFdaFy4m2lf2ymgiKZfNXAWU/CTPqxKBrAFzq0zOtiUFaAEFIMPegx+c4r82heyqMXvZcNJcxVjZYazi3xNtiN2tu6Hbeo3m8VzhPK9e99AuUTPoLwB);strokeColor=#5e5e5e;strokeWidth=2;spacingTop=-3;spacingBottom=-3;spacingLeft=-3;spacingRight=-3;labelBackgroundColor=none;rounded=0;html=1;whiteSpace=wrap;fontColor=#000000;" parent="-FW8mCHG5fzSLNDHaCp1-213" vertex="1">
          <mxGeometry width="76" height="50" as="geometry" />
        </mxCell>
        <mxCell id="-FW8mCHG5fzSLNDHaCp1-245" style="vsdxID=106;fillColor=#ffffff;gradientColor=none;shape=stencil(dY9LDoAgDERP032lMR4A9R4mohAVDOLv9oJdaEzczbSv7RRILrqZFQhcgneD2k0bNFAJQhirlTchKqAKSHbOq9671bbs5yaRSU1uSxsOnsM0IfBkV+S3rZkcjf0lM8Q3GsVzgcO9e980scSfUHUB);strokeColor=#5e5e5e;strokeWidth=2;spacingTop=-3;spacingBottom=-3;spacingLeft=-3;spacingRight=-3;labelBackgroundColor=none;rounded=0;html=1;whiteSpace=wrap;fontColor=#000000;" parent="-FW8mCHG5fzSLNDHaCp1-213" vertex="1">
          <mxGeometry width="76" height="50" as="geometry" />
        </mxCell>
        <mxCell id="-FW8mCHG5fzSLNDHaCp1-246" style="vsdxID=107;fillColor=#ffffff;gradientColor=none;shape=stencil(dY9LDoAgDERP0z22MR7Azz1IRCEqEMTf7YV0oTFxN9O+tlOgetXSK0CxxuAmdZg+aqAGEI3VKpiYFFALVA8uqDG4zfbsvcxkVovb84aT57DMIyguthXbjtHZ2H+0EOLNJvHc4Hjv3jdPKvEv1N4=);strokeColor=#5e5e5e;strokeWidth=2;spacingTop=-3;spacingBottom=-3;spacingLeft=-3;spacingRight=-3;labelBackgroundColor=none;rounded=0;html=1;whiteSpace=wrap;fontColor=#000000;" parent="-FW8mCHG5fzSLNDHaCp1-213" vertex="1">
          <mxGeometry width="76" height="50" as="geometry" />
        </mxCell>
        <mxCell id="-FW8mCHG5fzSLNDHaCp1-247" style="vsdxID=108;fillColor=#ffffff;gradientColor=none;shape=stencil(dY9LDoAgDERP032lMR4A9R4mohAVDOLv9oJdaEzczbSv7RRILrqZFQhcgneD2k0bNFAJQhirlTchKqAKSHbOq9671bbs5yaRSU1uSxsOnssxjQg82Rb5bWtGR2P/0QzxzUbx3OB47943TyzxL1Rd);strokeColor=#5e5e5e;strokeWidth=2;spacingTop=-3;spacingBottom=-3;spacingLeft=-3;spacingRight=-3;labelBackgroundColor=none;rounded=0;html=1;whiteSpace=wrap;fontColor=#000000;" parent="-FW8mCHG5fzSLNDHaCp1-213" vertex="1">
          <mxGeometry width="76" height="50" as="geometry" />
        </mxCell>
        <mxCell id="-FW8mCHG5fzSLNDHaCp1-248" style="vsdxID=109;fillColor=#ffffff;gradientColor=none;shape=stencil(UzV2Ls5ILEhVNTIoLinKz04tz0wpyVA1dlE1MsrMy0gtyiwBslSNXVWNndPyi1LTi/JL81Ig/IJEkEoQKze/DGRCBUSfuSlIi5FBJQrXDaI0JzMPt1JDAwNktUAGwg6I85Dl0N0DFIL4xdgVAA==);strokeColor=#5e5e5e;strokeWidth=2;spacingTop=-3;spacingBottom=-3;spacingLeft=-3;spacingRight=-3;labelBackgroundColor=none;rounded=0;html=1;whiteSpace=wrap;fontColor=#000000;" parent="-FW8mCHG5fzSLNDHaCp1-213" vertex="1">
          <mxGeometry width="76" height="50" as="geometry" />
        </mxCell>
        <mxCell id="-FW8mCHG5fzSLNDHaCp1-249" style="vsdxID=110;fillColor=#ffffff;gradientColor=none;shape=stencil(UzV2Ls5ILEhVNTIoLinKz04tz0wpyVA1dlE1MsrMy0gtyiwBslSNXVWNndPyi1LTi/JL81Ig/IJEkEoQKze/DGRCBUSfoYEBSI+RQSWEb24K5rpB1OZk5uFRC+NDFQMZCFsgDkSWQ3cRUAjiG2NXAA==);strokeColor=#5e5e5e;strokeWidth=2;spacingTop=-3;spacingBottom=-3;spacingLeft=-3;spacingRight=-3;labelBackgroundColor=none;rounded=0;html=1;whiteSpace=wrap;fontColor=#000000;" parent="-FW8mCHG5fzSLNDHaCp1-213" vertex="1">
          <mxGeometry width="76" height="50" as="geometry" />
        </mxCell>
        <mxCell id="-FW8mCHG5fzSLNDHaCp1-250" style="vsdxID=111;fillColor=#ffffff;gradientColor=none;shape=stencil(dY9LDoAgDERP0z1p4wlQ70EiClHBAP5uL6QLiYm7mfZNMwWS0ahNA4qYgp/1aYdkgFpAtM7oYFNWQB2QHH3QU/C7G9hvqpBFrf4oFy7OiZJAcdeuZ3CxrgKx+SezeO9ztXr37ZJH/Ad1Dw==);strokeColor=#5e5e5e;strokeWidth=2;spacingTop=-3;spacingBottom=-3;spacingLeft=-3;spacingRight=-3;labelBackgroundColor=none;rounded=0;html=1;whiteSpace=wrap;fontColor=#000000;" parent="-FW8mCHG5fzSLNDHaCp1-213" vertex="1">
          <mxGeometry width="76" height="50" as="geometry" />
        </mxCell>
        <mxCell id="-FW8mCHG5fzSLNDHaCp1-251" style="vsdxID=112;fillColor=#ffffff;gradientColor=none;shape=stencil(dY9LDoAgDERP0z1p4wkU72EiClHBAP5uL9iFxMTdTPvaToHqoLtVAYoQvZvUYfqogRpANFYrb2JSQBKoHpxXo3eb7dmvXSazWtyeN5w8h1UeQXGxFY9rmZyNLchK/JNJvAc4W9n7hkklfoTkDQ==);strokeColor=#5e5e5e;strokeWidth=2;spacingTop=-3;spacingBottom=-3;spacingLeft=-3;spacingRight=-3;labelBackgroundColor=none;rounded=0;html=1;whiteSpace=wrap;fontColor=#000000;" parent="-FW8mCHG5fzSLNDHaCp1-213" vertex="1">
          <mxGeometry width="76" height="50" as="geometry" />
        </mxCell>
        <mxCell id="-FW8mCHG5fzSLNDHaCp1-252" style="vsdxID=113;fillColor=#ffffff;gradientColor=none;shape=stencil(dY9LDoAgDERP0z2hIR7Azz1IQCEqEMDf7YV0oTFxN9O+tlPANhkZNHCWcvSzPqzKBrADzq0zOtpcFGAP2I4+6in6zSnyQVayqtXvdcNJc4LVEc4usuQGIhfrXmQj/skingOU7d37hiklegT7Gw==);strokeColor=#5e5e5e;strokeWidth=2;spacingTop=-3;spacingBottom=-3;spacingLeft=-3;spacingRight=-3;labelBackgroundColor=none;rounded=0;html=1;whiteSpace=wrap;fontColor=#000000;" parent="-FW8mCHG5fzSLNDHaCp1-213" vertex="1">
          <mxGeometry width="76" height="50" as="geometry" />
        </mxCell>
        <mxCell id="-FW8mCHG5fzSLNDHaCp1-253" style="vsdxID=114;fillColor=#ffffff;gradientColor=none;shape=stencil(dY9LDoAgDERP032lMR4A9R4mohAVDOLv9oJdaEzczbSv7RRILrqZFQhcgneD2k0bNFAJQhirlTchKqAKSHbOq9671bbs5yaRSU1uSxsOnivyNCLwZIu3q5kcjX2RGeI/GsVzgcO9e980scSfUHUB);strokeColor=#5e5e5e;strokeWidth=2;spacingTop=-3;spacingBottom=-3;spacingLeft=-3;spacingRight=-3;labelBackgroundColor=none;rounded=0;html=1;whiteSpace=wrap;fontColor=#000000;" parent="-FW8mCHG5fzSLNDHaCp1-213" vertex="1">
          <mxGeometry width="76" height="50" as="geometry" />
        </mxCell>
        <mxCell id="-FW8mCHG5fzSLNDHaCp1-254" style="vsdxID=115;fillColor=#ffffff;gradientColor=none;shape=stencil(bU9bDoAgDDvN/skWT+DjHiagEBUI4uv2gjPRGP/atd06oHLWrVeAYo7BDWozMmqgChCN1SqYmBBQDVR2Lqg+uMVK5r7Nzowmt+YNO+dETqA4mGFx0Yado7Ev5639WxN4LnC5t/Ztk0b8CdUn);strokeColor=#5e5e5e;strokeWidth=2;spacingTop=-3;spacingBottom=-3;spacingLeft=-3;spacingRight=-3;labelBackgroundColor=none;rounded=0;html=1;whiteSpace=wrap;fontColor=#000000;" parent="-FW8mCHG5fzSLNDHaCp1-213" vertex="1">
          <mxGeometry width="76" height="50" as="geometry" />
        </mxCell>
        <mxCell id="-FW8mCHG5fzSLNDHaCp1-255" style="vsdxID=116;fillColor=#ffffff;gradientColor=none;shape=stencil(UzV2Ls5ILEhVNTIoLinKz04tz0wpyVA1dlE1MsrMy0gtyiwBslSNXVWNndPyi1LTi/JL81Ig/IJEkEoQKze/DGRCBUSfkSlIi5FBJQrXDaI0JzMPSampAR6lQAbCCojrkOXQnQMUgnjF2BUA);strokeColor=#5e5e5e;strokeWidth=2;spacingTop=-3;spacingBottom=-3;spacingLeft=-3;spacingRight=-3;labelBackgroundColor=none;rounded=0;html=1;whiteSpace=wrap;fontColor=#000000;" parent="-FW8mCHG5fzSLNDHaCp1-213" vertex="1">
          <mxGeometry width="76" height="50" as="geometry" />
        </mxCell>
        <mxCell id="-FW8mCHG5fzSLNDHaCp1-256" style="vsdxID=117;fillColor=#ffffff;gradientColor=none;shape=stencil(fY9LDoAgDERP0z1pQzyA4j1MRCEqGMTf7QW70LhwN9O+tlOgcjHNrAHFEoMf9G7baIAqQLTO6GBjUkAKqOx80H3wq2vZz00ms5r8ljccPCdFHkFxskV525rR0boXWsgfNInnBKd7975xUolfIXUB);strokeColor=#5e5e5e;strokeWidth=2;spacingTop=-3;spacingBottom=-3;spacingLeft=-3;spacingRight=-3;labelBackgroundColor=none;rounded=0;html=1;whiteSpace=wrap;fontColor=#000000;" parent="-FW8mCHG5fzSLNDHaCp1-213" vertex="1">
          <mxGeometry width="76" height="50" as="geometry" />
        </mxCell>
        <mxCell id="-FW8mCHG5fzSLNDHaCp1-257" style="vsdxID=118;fillColor=#ffffff;gradientColor=none;shape=stencil(fY9LDoAgDERP0z22MR7Azz1IRCEqEMTf7YV0oXHhbqZ9badA9aqlV4BijcFN6jB91EANIBqrVTAxKaAWqB5cUGNwm+3Ze5nJrBa35w0nz1VlHkFxsUW2HaOzsS+0EOKHTeK5wfHevW+eVOJfqL0B);strokeColor=#5e5e5e;strokeWidth=2;spacingTop=-3;spacingBottom=-3;spacingLeft=-3;spacingRight=-3;labelBackgroundColor=none;rounded=0;html=1;whiteSpace=wrap;fontColor=#000000;" parent="-FW8mCHG5fzSLNDHaCp1-213" vertex="1">
          <mxGeometry width="76" height="50" as="geometry" />
        </mxCell>
        <mxCell id="-FW8mCHG5fzSLNDHaCp1-258" style="vsdxID=119;fillColor=#ffffff;gradientColor=none;shape=stencil(fY9LDoAgDERP0z1p4wlQ70EiClGBAP5uL6QLjQt3M+1rOwWSyaigAUXK0c/6sEM2QC0gWmd0tLkooA5Ijj7qKfrNDeyDqmRVq9/rhpPnRJ1AcbFr2PZMLta9SGx+0CKeCxzu3fumKSX+hLob);strokeColor=#5e5e5e;strokeWidth=2;spacingTop=-3;spacingBottom=-3;spacingLeft=-3;spacingRight=-3;labelBackgroundColor=none;rounded=0;html=1;whiteSpace=wrap;fontColor=#000000;" parent="-FW8mCHG5fzSLNDHaCp1-213" vertex="1">
          <mxGeometry width="76" height="50" as="geometry" />
        </mxCell>
        <mxCell id="-FW8mCHG5fzSLNDHaCp1-259" style="vsdxID=120;fillColor=#ffffff;gradientColor=none;shape=stencil(bU9bDoAgDDvN/skWTuDjHiaiEBUI4uv2gjPRGP/atd06oGLWjVeAYo7BDWozbdRAJSAaq1UwMSGgCqjoXFB9cIttmfsmOzOa3Jo37JxDmSMoDqZSXLRm62jsy3pr/9YEnhPc7q1966QRv0LVCQ==);strokeColor=#5e5e5e;strokeWidth=2;spacingTop=-3;spacingBottom=-3;spacingLeft=-3;spacingRight=-3;labelBackgroundColor=none;rounded=0;html=1;whiteSpace=wrap;fontColor=#000000;" parent="-FW8mCHG5fzSLNDHaCp1-213" vertex="1">
          <mxGeometry width="76" height="50" as="geometry" />
        </mxCell>
        <mxCell id="-FW8mCHG5fzSLNDHaCp1-260" style="vsdxID=121;fillColor=#ffffff;gradientColor=none;shape=stencil(UzV2Ls5ILEhVNTIoLinKz04tz0wpyVA1dlE1MsrMy0gtyiwBslSNXVWNndPyi1LTi/JL81Ig/IJEkEoQKze/DGRCBUSfqQFIi5FBJQrXDaI0JzMPSam5KR6lQAbCCojrkOXQnQMUgnjF2BUA);strokeColor=#5e5e5e;strokeWidth=2;spacingTop=-3;spacingBottom=-3;spacingLeft=-3;spacingRight=-3;labelBackgroundColor=none;rounded=0;html=1;whiteSpace=wrap;fontColor=#000000;" parent="-FW8mCHG5fzSLNDHaCp1-213" vertex="1">
          <mxGeometry width="76" height="50" as="geometry" />
        </mxCell>
        <mxCell id="-FW8mCHG5fzSLNDHaCp1-261" style="vsdxID=122;fillColor=#ffffff;gradientColor=none;shape=stencil(fY9LDoAgDERP032lMR4A9R4mohAVDOLv9oJdaFy4m2lf2ymQXHQzKxC4BO8GtZs2aKAShDBWK29CVEAVkOycV713q23Zz00ik5rcljYcPFfkaUTgyTbH29aMjsa+0Azxh43iucHx3r1vnljiX6i6AA==);strokeColor=#5e5e5e;strokeWidth=2;spacingTop=-3;spacingBottom=-3;spacingLeft=-3;spacingRight=-3;labelBackgroundColor=none;rounded=0;html=1;whiteSpace=wrap;fontColor=#000000;" parent="-FW8mCHG5fzSLNDHaCp1-213" vertex="1">
          <mxGeometry width="76" height="50" as="geometry" />
        </mxCell>
        <mxCell id="-FW8mCHG5fzSLNDHaCp1-262" style="vsdxID=123;fillColor=#ffffff;gradientColor=none;shape=stencil(fY9LDoAgDERP0z1pYzyAn3uQiEJUIIi/2wt2oXHhbqZ9badA1aKlV4BiicGNajdd1EA1IBqrVTAxKaAGqOpdUENwq+3Ye5nJrGa35Q0Hz4k8geJkVxa3bZmcjH2RWPygSTwXONy7902TSvwJNRc=);strokeColor=#5e5e5e;strokeWidth=2;spacingTop=-3;spacingBottom=-3;spacingLeft=-3;spacingRight=-3;labelBackgroundColor=none;rounded=0;html=1;whiteSpace=wrap;fontColor=#000000;" parent="-FW8mCHG5fzSLNDHaCp1-213" vertex="1">
          <mxGeometry width="76" height="50" as="geometry" />
        </mxCell>
        <mxCell id="-FW8mCHG5fzSLNDHaCp1-263" style="vsdxID=124;fillColor=#ffffff;gradientColor=none;shape=stencil(fY9LDoAgDERP0z228QR+7kEiClGBAP5uL6QLjQt3M+1rOwVqopZeAYqYgpvVYYakgVpANFarYFJWQB1QM7qgpuA2O7D3spBFrW4vG06eE2UCxcWuEux7RhdjXyjWf2wWzw2O9+598+QS/0LdDQ==);strokeColor=#5e5e5e;strokeWidth=2;spacingTop=-3;spacingBottom=-3;spacingLeft=-3;spacingRight=-3;labelBackgroundColor=none;rounded=0;html=1;whiteSpace=wrap;fontColor=#000000;" parent="-FW8mCHG5fzSLNDHaCp1-213" vertex="1">
          <mxGeometry width="76" height="50" as="geometry" />
        </mxCell>
        <mxCell id="-FW8mCHG5fzSLNDHaCp1-264" style="vsdxID=125;fillColor=#ffffff;gradientColor=none;shape=stencil(fY9LDoAgDERP0z1pQzyAn3uQiEJUIIi/2wvpQuPC3Uz72k6B6tWooAHFmqKf9GH7ZIAaQLTO6GhTVkAtUD34qMfoN9ezD6qQRS1+LxtOnkNZRlBcbCu2HaOzdS9Uih80i+cEp3v3vnFyiV+h9gY=);strokeColor=#5e5e5e;strokeWidth=2;spacingTop=-3;spacingBottom=-3;spacingLeft=-3;spacingRight=-3;labelBackgroundColor=none;rounded=0;html=1;whiteSpace=wrap;fontColor=#000000;" parent="-FW8mCHG5fzSLNDHaCp1-213" vertex="1">
          <mxGeometry width="76" height="50" as="geometry" />
        </mxCell>
        <mxCell id="-FW8mCHG5fzSLNDHaCp1-265" style="vsdxID=126;fillColor=#ffffff;gradientColor=none;shape=stencil(fY9LDoAwCERPwx4hnsDPPUystlFbU+vv9ray0LhwNwMPGICLRTezAsIleDeo3bRBA5dAZKxW3oSogCvgonNe9d6tthU/N4lManJb2nDIHOVphPAUmyHevhZ2NPbF5vjHRvEckXzv3jdQLMkzXF0=);strokeColor=#5e5e5e;strokeWidth=2;spacingTop=-3;spacingBottom=-3;spacingLeft=-3;spacingRight=-3;labelBackgroundColor=none;rounded=0;html=1;whiteSpace=wrap;fontColor=#000000;" parent="-FW8mCHG5fzSLNDHaCp1-213" vertex="1">
          <mxGeometry width="76" height="50" as="geometry" />
        </mxCell>
        <mxCell id="-FW8mCHG5fzSLNDHaCp1-266" style="vsdxID=127;fillColor=#ffffff;gradientColor=none;shape=stencil(bU9bDoAgDDvN/gmL8QA+7mECClHBAL5uLzgTifGvXdutA6y86hYJnPng7Ch3LYICrIFzbZR0OkQE2ABWvXVycHY1gvjSJWdCs93ShoNyBUsRzk6iZXHTlqyTNpn10f6tEbwnqF2ufevEEb2CzQU=);strokeColor=#5e5e5e;strokeWidth=2;spacingTop=-3;spacingBottom=-3;spacingLeft=-3;spacingRight=-3;labelBackgroundColor=none;rounded=0;html=1;whiteSpace=wrap;fontColor=#000000;" parent="-FW8mCHG5fzSLNDHaCp1-213" vertex="1">
          <mxGeometry width="76" height="50" as="geometry" />
        </mxCell>
        <mxCell id="-FW8mCHG5fzSLNDHaCp1-267" style="vsdxID=128;fillColor=#ffffff;gradientColor=none;shape=stencil(fY9LDoAgDERP0z3SGA+AeA8TUIgKBvB3eyFdaFy4m2lf2ymgiKZfNXAWU/CTPqxKBrAFzq0zOtiUFaAEFIMPegx+c4r82heyqMXvZcNJczUrI5xdZCtGviN2tu7FNvUfm8VzhPK9e99AuUTPoLwB);strokeColor=#5e5e5e;strokeWidth=2;spacingTop=-3;spacingBottom=-3;spacingLeft=-3;spacingRight=-3;labelBackgroundColor=none;rounded=0;html=1;whiteSpace=wrap;fontColor=#000000;" parent="-FW8mCHG5fzSLNDHaCp1-213" vertex="1">
          <mxGeometry width="76" height="50" as="geometry" />
        </mxCell>
        <mxCell id="-FW8mCHG5fzSLNDHaCp1-268" style="vsdxID=129;fillColor=#ffffff;gradientColor=none;shape=stencil(UzV2Ls5ILEhVNTIoLinKz04tz0wpyVA1dlE1MsrMy0gtyiwBslSNXVWNndPyi1LTi/JL81Ig/IJEkEoQKze/DGRCBUSfuSlIi5FBJQrXDaI0JzMPSamhgQEetUAGwg6I85Dl0N0DFIL4xdgVAA==);strokeColor=#5e5e5e;strokeWidth=2;spacingTop=-3;spacingBottom=-3;spacingLeft=-3;spacingRight=-3;labelBackgroundColor=none;rounded=0;html=1;whiteSpace=wrap;fontColor=#000000;" parent="-FW8mCHG5fzSLNDHaCp1-213" vertex="1">
          <mxGeometry width="76" height="50" as="geometry" />
        </mxCell>
        <mxCell id="-FW8mCHG5fzSLNDHaCp1-269" style="vsdxID=130;fillColor=#ffffff;gradientColor=none;shape=stencil(dU9bDoAgDDvN/pHFeAAf9yARhahAEF+3F1yMxsS/dm23DrCclXASOJuDt4PcdBsUYAWca6Ok1yEiwBqw7KyXvbeLaYk7kZwJTXZNG3bKFXmKcHYQzRi7eEPeUZuX9xZ/zBE8V6jgW/s2iiP6BusT);strokeColor=#5e5e5e;strokeWidth=2;spacingTop=-3;spacingBottom=-3;spacingLeft=-3;spacingRight=-3;labelBackgroundColor=none;rounded=0;html=1;whiteSpace=wrap;fontColor=#000000;" parent="-FW8mCHG5fzSLNDHaCp1-213" vertex="1">
          <mxGeometry width="76" height="50" as="geometry" />
        </mxCell>
        <mxCell id="-FW8mCHG5fzSLNDHaCp1-270" style="vsdxID=131;fillColor=none;gradientColor=none;fillOpacity=0;strokeOpacity=0;strokeWidth=2;spacingTop=-3;spacingBottom=-3;spacingLeft=-3;spacingRight=-3;labelBackgroundColor=none;rounded=1;strokeColor=none;html=1;whiteSpace=wrap;fontColor=#000000;" parent="1" vertex="1">
          <mxGeometry x="585.5" y="367" width="62" height="38" as="geometry" />
        </mxCell>
        <mxCell id="-FW8mCHG5fzSLNDHaCp1-271" style="vsdxID=132;fillColor=#ffffff;gradientColor=none;fillOpacity=0;strokeOpacity=0;shape=stencil(fZNRboMwDIZPk9cosUsrHqeuvcBOgEo2ojGoUrpCT78UB80uFJ7i+P/jzwlWuL9UxdkpMJcutN/u5suuUviuAHxTueC7uFJ4ULj/bIP7Cu21KSk+F1EJZtxxJXnsQw2mCKcPf3e0ZzTaXUYJcv60v4+KfcpTakgnUHgk5ekaSGqlNoUbnVnDvlSlB0qDnuoOIPw9UrjVNhEPyAVjdfMWAWrfMNQcdW4F7iptvtOwlcRGEkZ6bUAyvmoKFyw4v7QFbGFJaKvgwjA1k+lNLul5f/8NSVx+ZSg1r3DZqywY5rTsme0zhXz3iZL3glKB8/tZQFz7Z+NiHA0aGl/XNFk8/zxKcYvGEA9/);strokeWidth=2;spacingTop=-3;spacingBottom=-3;spacingLeft=-3;spacingRight=-3;labelBackgroundColor=none;rounded=1;html=1;whiteSpace=wrap;fontColor=#000000;" parent="-FW8mCHG5fzSLNDHaCp1-270" vertex="1">
          <mxGeometry width="62" height="38" as="geometry" />
        </mxCell>
        <mxCell id="-FW8mCHG5fzSLNDHaCp1-272" value="&lt;div style=&quot;font-size: 1px&quot;&gt;&lt;p style=&quot;align:center;margin-left:0;margin-right:0;margin-top:0px;margin-bottom:0px;text-indent:0;valign:middle;direction:ltr;&quot;&gt;&lt;font style=&quot;font-size: 14.11px; font-family: Arial; direction: ltr; letter-spacing: 0px; line-height: 100%; opacity: 1;&quot;&gt;&lt;b&gt;Analyze&lt;/b&gt;&lt;/font&gt;&lt;/p&gt;&lt;/div&gt;" style="text;vsdxID=131;fillColor=none;gradientColor=none;fillOpacity=0;strokeOpacity=0;strokeWidth=2;spacingTop=-3;spacingBottom=-3;spacingLeft=-3;spacingRight=-3;labelBackgroundColor=none;rounded=1;strokeColor=none;html=1;whiteSpace=wrap;verticalAlign=middle;align=center;;html=1;fontColor=#000000;" parent="-FW8mCHG5fzSLNDHaCp1-270" vertex="1">
          <mxGeometry x="2.7399999999999984" y="3.08" width="56.52" height="31.75" as="geometry" />
        </mxCell>
        <mxCell id="-FW8mCHG5fzSLNDHaCp1-273" style="vsdxID=133;fillColor=none;gradientColor=none;fillOpacity=0;strokeOpacity=0;strokeWidth=2;spacingTop=-3;spacingBottom=-3;spacingLeft=-3;spacingRight=-3;labelBackgroundColor=none;rounded=1;strokeColor=none;html=1;whiteSpace=wrap;fontColor=#000000;" parent="1" vertex="1">
          <mxGeometry x="746" y="370" width="162" height="34" as="geometry" />
        </mxCell>
        <mxCell id="-FW8mCHG5fzSLNDHaCp1-274" style="vsdxID=134;fillColor=#ffffff;gradientColor=none;fillOpacity=0;strokeOpacity=0;shape=stencil(hVNBcoMwDHyNrx4hJYCPnTT5QF/ABLd4SiHjkJb29SXIaSzGoZwsaVfeFZai3bmpTlYhnAffv9svVw+NomeF6LrGejdMJ0V7RbvX3ts331+6muNTNSER5oytmZNd0QiVP764H8s50JQVWy4w86P/vN44hjqXvkMH0Ia7HBh8vHhGZxIewo02CNGHXB4xtNOQBwIK/kgcoqZNAFAMmG+Hp0lA67pIrSl0XgjFsKbWlNrkkbxMqoeFWgD9B8F1g5SgUHKGCReCxanSaDBrVgTnZm+roZQeHjm+W5QG4oGSxDxSH/2zBCGh/P4IsqUK+SpuKmNfJBGUHFdC5T/vejrMG8S75dqWFzCuLzduSvG20v4X);strokeWidth=2;spacingTop=-3;spacingBottom=-3;spacingLeft=-3;spacingRight=-3;labelBackgroundColor=none;rounded=1;html=1;whiteSpace=wrap;fontColor=#000000;" parent="-FW8mCHG5fzSLNDHaCp1-273" vertex="1">
          <mxGeometry width="162" height="34" as="geometry" />
        </mxCell>
        <mxCell id="-FW8mCHG5fzSLNDHaCp1-275" value="&lt;div style=&quot;font-size: 1px&quot;&gt;&lt;p style=&quot;align:center;margin-left:0;margin-right:0;margin-top:0px;margin-bottom:0px;text-indent:0;valign:middle;direction:ltr;&quot;&gt;&lt;font style=&quot;font-size: 14.11px; font-family: Arial; direction: ltr; letter-spacing: 0px; line-height: 100%; opacity: 1;&quot;&gt;&lt;b&gt;Graph and Visualize&lt;/b&gt;&lt;/font&gt;&lt;/p&gt;&lt;/div&gt;" style="text;vsdxID=133;fillColor=none;gradientColor=none;fillOpacity=0;strokeOpacity=0;strokeWidth=2;spacingTop=-3;spacingBottom=-3;spacingLeft=-3;spacingRight=-3;labelBackgroundColor=none;rounded=1;strokeColor=none;html=1;whiteSpace=wrap;verticalAlign=middle;align=center;;html=1;fontColor=#000000;" parent="-FW8mCHG5fzSLNDHaCp1-273" vertex="1">
          <mxGeometry x="3.17" y="2.24" width="156.85" height="28.58" as="geometry" />
        </mxCell>
        <mxCell id="-FW8mCHG5fzSLNDHaCp1-276" style="edgeStyle=orthogonalEdgeStyle;rounded=1;orthogonalLoop=1;jettySize=auto;html=1;entryX=0.5;entryY=0;entryDx=0;entryDy=0;exitX=1;exitY=0.5;exitDx=0;exitDy=0;fontColor=#000000;" parent="1" source="-FW8mCHG5fzSLNDHaCp1-184" target="-FW8mCHG5fzSLNDHaCp1-183" edge="1">
          <mxGeometry relative="1" as="geometry">
            <Array as="points">
              <mxPoint x="940" y="533" />
              <mxPoint x="940" y="680" />
              <mxPoint x="750" y="680" />
              <mxPoint x="750" y="710" />
              <mxPoint x="751" y="710" />
            </Array>
          </mxGeometry>
        </mxCell>
        <mxCell id="-FW8mCHG5fzSLNDHaCp1-277" style="edgeStyle=orthogonalEdgeStyle;rounded=1;orthogonalLoop=1;jettySize=auto;html=1;fontColor=#000000;" parent="1" source="-FW8mCHG5fzSLNDHaCp1-188" target="-FW8mCHG5fzSLNDHaCp1-190" edge="1">
          <mxGeometry relative="1" as="geometry" />
        </mxCell>
        <mxCell id="-FW8mCHG5fzSLNDHaCp1-278" value="" style="edgeStyle=orthogonalEdgeStyle;rounded=1;orthogonalLoop=1;jettySize=auto;html=1;fontColor=#000000;" parent="1" source="-FW8mCHG5fzSLNDHaCp1-172" target="-FW8mCHG5fzSLNDHaCp1-176" edge="1">
          <mxGeometry relative="1" as="geometry" />
        </mxCell>
        <mxCell id="-FW8mCHG5fzSLNDHaCp1-279" value="" style="edgeStyle=orthogonalEdgeStyle;rounded=1;orthogonalLoop=1;jettySize=auto;html=1;fontColor=#000000;" parent="1" source="-FW8mCHG5fzSLNDHaCp1-165" target="-FW8mCHG5fzSLNDHaCp1-172" edge="1">
          <mxGeometry relative="1" as="geometry" />
        </mxCell>
        <mxCell id="-FW8mCHG5fzSLNDHaCp1-280" style="edgeStyle=orthogonalEdgeStyle;rounded=1;orthogonalLoop=1;jettySize=auto;html=1;fontColor=#000000;" parent="1" source="-FW8mCHG5fzSLNDHaCp1-168" target="-FW8mCHG5fzSLNDHaCp1-185" edge="1">
          <mxGeometry relative="1" as="geometry" />
        </mxCell>
        <mxCell id="-FW8mCHG5fzSLNDHaCp1-281" style="edgeStyle=orthogonalEdgeStyle;rounded=1;orthogonalLoop=1;jettySize=auto;html=1;entryX=0.5;entryY=1;entryDx=0;entryDy=0;fontColor=#000000;" parent="1" source="-FW8mCHG5fzSLNDHaCp1-176" target="-FW8mCHG5fzSLNDHaCp1-184" edge="1">
          <mxGeometry relative="1" as="geometry" />
        </mxCell>
        <mxCell id="-FW8mCHG5fzSLNDHaCp1-282" value="" style="edgeStyle=orthogonalEdgeStyle;rounded=1;orthogonalLoop=1;jettySize=auto;html=1;fontColor=#000000;" parent="1" source="-FW8mCHG5fzSLNDHaCp1-194" target="-FW8mCHG5fzSLNDHaCp1-179" edge="1">
          <mxGeometry relative="1" as="geometry" />
        </mxCell>
        <mxCell id="-FW8mCHG5fzSLNDHaCp1-283" value="" style="edgeStyle=orthogonalEdgeStyle;rounded=1;orthogonalLoop=1;jettySize=auto;html=1;fontColor=#000000;" parent="1" source="-FW8mCHG5fzSLNDHaCp1-179" target="-FW8mCHG5fzSLNDHaCp1-162" edge="1">
          <mxGeometry relative="1" as="geometry" />
        </mxCell>
        <mxCell id="-FW8mCHG5fzSLNDHaCp1-284" value="" style="edgeStyle=orthogonalEdgeStyle;rounded=1;orthogonalLoop=1;jettySize=auto;html=1;fontColor=#000000;" parent="1" source="-FW8mCHG5fzSLNDHaCp1-162" target="-FW8mCHG5fzSLNDHaCp1-165" edge="1">
          <mxGeometry relative="1" as="geometry" />
        </mxCell>
        <mxCell id="-FW8mCHG5fzSLNDHaCp1-285" value="" style="edgeStyle=orthogonalEdgeStyle;rounded=1;orthogonalLoop=1;jettySize=auto;html=1;fontColor=#000000;" parent="1" source="-FW8mCHG5fzSLNDHaCp1-165" target="-FW8mCHG5fzSLNDHaCp1-168" edge="1">
          <mxGeometry relative="1" as="geometry" />
        </mxCell>
        <mxCell id="-FW8mCHG5fzSLNDHaCp1-286" style="edgeStyle=orthogonalEdgeStyle;rounded=1;orthogonalLoop=1;jettySize=auto;html=1;fontColor=#000000;startArrow=classic;startFill=1;exitX=1;exitY=0.25;exitDx=0;exitDy=0;entryX=0.25;entryY=1;entryDx=0;entryDy=0;endArrow=none;endFill=0;" parent="1" source="-FW8mCHG5fzSLNDHaCp1-159" target="-FW8mCHG5fzSLNDHaCp1-162" edge="1">
          <mxGeometry relative="1" as="geometry" />
        </mxCell>
        <mxCell id="-FW8mCHG5fzSLNDHaCp1-287" value="Send&lt;br&gt;&amp;nbsp;Query" style="edgeLabel;html=1;align=center;verticalAlign=middle;resizable=0;points=[];" parent="-FW8mCHG5fzSLNDHaCp1-286" vertex="1" connectable="0">
          <mxGeometry x="0.7108" y="2" relative="1" as="geometry">
            <mxPoint x="-23" y="3" as="offset" />
          </mxGeometry>
        </mxCell>
        <mxCell id="-FW8mCHG5fzSLNDHaCp1-288" value="" style="edgeStyle=orthogonalEdgeStyle;rounded=1;orthogonalLoop=1;jettySize=auto;html=1;fontColor=#000000;" parent="1" source="-FW8mCHG5fzSLNDHaCp1-179" target="-FW8mCHG5fzSLNDHaCp1-158" edge="1">
          <mxGeometry relative="1" as="geometry">
            <mxPoint x="338" y="550" as="targetPoint" />
          </mxGeometry>
        </mxCell>
        <mxCell id="-FW8mCHG5fzSLNDHaCp1-289" style="edgeStyle=orthogonalEdgeStyle;rounded=1;orthogonalLoop=1;jettySize=auto;html=1;fontColor=#000000;startArrow=none;startFill=0;exitX=1;exitY=0.75;exitDx=0;exitDy=0;entryX=0.75;entryY=1;entryDx=0;entryDy=0;" parent="1" source="-FW8mCHG5fzSLNDHaCp1-159" target="-FW8mCHG5fzSLNDHaCp1-162" edge="1">
          <mxGeometry relative="1" as="geometry">
            <mxPoint x="398.60000000000014" y="593.4025000000001" as="sourcePoint" />
            <mxPoint x="481.8333333333335" y="518" as="targetPoint" />
          </mxGeometry>
        </mxCell>
        <mxCell id="-FW8mCHG5fzSLNDHaCp1-290" value="Get &lt;br&gt;Query &lt;br&gt;Result" style="edgeLabel;html=1;align=center;verticalAlign=middle;resizable=0;points=[];" parent="-FW8mCHG5fzSLNDHaCp1-289" vertex="1" connectable="0">
          <mxGeometry x="-0.3697" relative="1" as="geometry">
            <mxPoint x="59" y="-91" as="offset" />
          </mxGeometry>
        </mxCell>
        <mxCell id="-FW8mCHG5fzSLNDHaCp1-291" value="Send&lt;br style=&quot;border-color: var(--border-color); background-color: rgb(251, 251, 251);&quot;&gt;&lt;span style=&quot;border-color: var(--border-color);&quot;&gt;&amp;nbsp;Query&lt;br&gt;Result&lt;br&gt;&lt;/span&gt;" style="edgeLabel;html=1;align=center;verticalAlign=middle;resizable=0;points=[];" parent="-FW8mCHG5fzSLNDHaCp1-289" vertex="1" connectable="0">
          <mxGeometry x="-0.7591" y="-1" relative="1" as="geometry">
            <mxPoint x="4" y="28" as="offset" />
          </mxGeometry>
        </mxCell>
        <mxCell id="22" style="vsdxID=21;fillColor=#FFFFFF;gradientColor=none;shape=stencil(fZNbEoIwDEVX018mNOODT8fHBlwBA1U6IjgVFVy9hbTSFvSvaW4mJ7cNw+29SG+Ccbg3qr6Il8ybguGOcS6rQijZ6BPDPcPtqVbirOpHlVN8S7WSw3AjcqqJezWHVGVH+RZ0BxHGqwUlqPJaP/uOrclTqqOIhAcSZg9FytiXmpBHRg4tN/2jZWI03CtpkUKMLEqHrmBoCBvds5SVA5csvz26iX4KmKz1sD4kBIQAPqAzBIYSnHgygzjKDcNfC0e1RV59LbGM7hQhtoV0jQm4f4E63s8UzKCOjxnCt/7rWkp3FvQVODVnBvHPX9SH4cfTLsiypIVx8+GG6CvaLtx/AA==);strokeColor=#5e5e5e;strokeWidth=2;spacingTop=-3;spacingBottom=-3;spacingLeft=-3;spacingRight=-3;labelBackgroundColor=none;rounded=1;html=1;whiteSpace=wrap;fontColor=#000000;" parent="1" vertex="1">
          <mxGeometry x="279.38" y="169.93" width="67.2007874015748" height="103.96320630749014" as="geometry" />
        </mxCell>
        <mxCell id="23" value="&lt;div style=&quot;font-size: 1px&quot;&gt;&lt;p style=&quot;align:center;margin-left:0;margin-right:0;margin-top:0px;margin-bottom:0px;text-indent:0;valign:middle;direction:ltr;&quot;&gt;&lt;font style=&quot;font-size: 14.11px; font-family: Arial; direction: ltr; letter-spacing: 0px; line-height: 100%; opacity: 1;&quot;&gt;Connect to REST API&amp;nbsp;&lt;/font&gt;&lt;/p&gt;&lt;p style=&quot;align:center;margin-left:0;margin-right:0;margin-top:0px;margin-bottom:0px;text-indent:0;valign:middle;direction:ltr;&quot;&gt;&lt;font style=&quot;font-size: 14.11px; font-family: Arial; direction: ltr; letter-spacing: 0px; line-height: 100%; opacity: 1;&quot;&gt;Data Source&lt;/font&gt;&lt;/p&gt;&lt;/div&gt;" style="text;vsdxID=20;fillColor=none;gradientColor=none;strokeColor=none;strokeWidth=2;spacingTop=-3;spacingBottom=-3;spacingLeft=-3;spacingRight=-3;labelBackgroundColor=none;rounded=1;html=1;whiteSpace=wrap;verticalAlign=middle;align=center;;html=1;fontColor=#000000;" parent="1" vertex="1">
          <mxGeometry x="303.0041732283464" y="196.46873850197107" width="19.96062992125984" height="41.038107752956634" as="geometry" />
        </mxCell>
        <mxCell id="-FW8mCHG5fzSLNDHaCp1-305" style="edgeStyle=orthogonalEdgeStyle;rounded=0;orthogonalLoop=1;jettySize=auto;html=1;entryX=0;entryY=0.5;entryDx=0;entryDy=0;" parent="1" source="4" target="-FW8mCHG5fzSLNDHaCp1-303" edge="1">
          <mxGeometry relative="1" as="geometry" />
        </mxCell>
        <mxCell id="-FW8mCHG5fzSLNDHaCp1-308" style="edgeStyle=orthogonalEdgeStyle;rounded=0;orthogonalLoop=1;jettySize=auto;html=1;exitX=1;exitY=0.5;exitDx=0;exitDy=0;entryX=-0.02;entryY=0.422;entryDx=0;entryDy=0;entryPerimeter=0;" parent="1" source="49" target="7" edge="1">
          <mxGeometry relative="1" as="geometry" />
        </mxCell>
        <mxCell id="-FW8mCHG5fzSLNDHaCp1-312" value="" style="endArrow=classic;html=1;rounded=0;entryX=0.017;entryY=0.453;entryDx=0;entryDy=0;entryPerimeter=0;exitX=1;exitY=0.5;exitDx=0;exitDy=0;" parent="1" source="-FW8mCHG5fzSLNDHaCp1-303" target="22" edge="1">
          <mxGeometry width="50" height="50" relative="1" as="geometry">
            <mxPoint x="238.8" y="220" as="sourcePoint" />
            <mxPoint x="288.8" y="170" as="targetPoint" />
          </mxGeometry>
        </mxCell>
      </root>
    </mxGraphModel>
  </diagram>
</mxfile>
